<svg xmlns="http://www.w3.org/2000/svg" version="1.1" xmlns:xlink="http://www.w3.org/1999/xlink" xmlns:svgjs="http://svgjs.dev/svgjs" viewBox="0 0 4.474654515010093 4.244145640104712"><g transform="matrix(1,0,0,1,2.2334840714347854,3.442514681533199)"><rect width="4.474654515010093" height="4.474654515010093" x="-2.2334840714347854" y="-3.5577691189858895" fill="#202020"></rect><g transform="matrix(1,0,0,1,0,0)"><path d=" M -1.783734787822691 -1.872964058075967 Q -1.771471279044685 -1.8900405434418661 -1.7521354997086722 -1.9180249612037032 Q -1.7327997203726597 -1.9460093789655404 -1.7148470335715658 -1.9736987458167674 Q -1.6892780554003108 -2.013135116786697 -1.6667242322004379 -2.0497592216777227 Q -1.6441704090005649 -2.0863833265687486 -1.6343780343817864 -2.1014866175785087 Q -1.5772558491055788 -2.1895891484687766 -1.5115035902597618 -2.2101230340405014 Q -1.4457513314139447 -2.2306569196122252 -1.3878553825431972 -2.193119483573575 Q -1.3584878722464413 -2.174078755148172 -1.33826727131007 -2.1436875179609167 Q -1.318046670373699 -2.113296280773661 -1.3131968952048476 -2.070226805726807 Q -1.3083471200359962 -2.0271573306799526 -1.3245480662296445 -1.970920960398519 L -1.3228699227841156 -1.9698329187742103 Q -1.2715015613962766 -2.030679376751059 -1.2242181628793851 -2.0530574960798322 Q -1.1769347643624937 -2.0754356154086055 -1.1360967360014302 -2.0704101363686545 Q -1.095258707640367 -2.0653846573287034 -1.0608567670070244 -2.0430798040303744 Q -1.0130296788094504 -2.0120706177375762 -0.9920346520155958 -1.9644921683100747 Q -0.9710396252217411 -1.916913718882573 -0.9794399560089652 -1.8580033255494333 Q -0.9878402867961892 -1.7990929322162938 -1.0286418477077661 -1.7361625530089597 Q -1.040610305575162 -1.7177029751081416 -1.0658058288941006 -1.6815998505247371 Q -1.091001352213039 -1.6454967259413324 -1.1247306425666093 -1.5934742791299363 Q -1.1437713709920119 -1.5641067688331804 -1.1618485427438778 -1.5353063198531116 Q -1.1799257144957438 -1.506505870873043 -1.1896720081054564 -1.4877973230706807 L -1.2064534425607454 -1.4986777393137678 Q -1.1896348783930262 -1.5282942195120681 -1.1851489445169117 -1.5462420995333723 Q -1.1806630106407972 -1.5641899795546763 -1.1925021767776312 -1.5790167845100416 Q -1.2043413429144652 -1.5938435894654068 -1.2345479249339857 -1.6134283387029638 L -1.6507274994251557 -1.8832626615315258 Q -1.6817731531674405 -1.903391431581237 -1.6997210331887445 -1.9078773654573515 Q -1.7176689132100487 -1.912363299333466 -1.732643243620719 -1.9012156794640915 Q -1.747617574031389 -1.8900680595947168 -1.766953353367402 -1.8620836418328799 L -1.783734787822691 -1.872964058075967 M -1.6320361919531208 -2.070173429078465 Q -1.6570611493122214 -2.0315761298312998 -1.6504132213953866 -2.0105807719059734 Q -1.6437652934785518 -1.9895854139806468 -1.6001335638948002 -1.96129633174862 L -1.1839539894036302 -1.691462008920058 Q -1.1545864791068743 -1.6724212804946554 -1.136219063224188 -1.6676633362124638 Q -1.1178516473415014 -1.662905391930272 -1.104112884010445 -1.6730664146215772 Q -1.0903741206793887 -1.6832274373128824 -1.0735094755026036 -1.7092386607185803 Q -1.0201954359114762 -1.791467689549497 -1.03416427315639 -1.8535593281655387 Q -1.0481331104013039 -1.9156509667815804 -1.118615135113518 -1.9613487150025466 Q -1.1832236577663813 -2.003238317538432 -1.241041533826894 -1.9912657151541904 Q -1.2988594098874071 -1.9792931127699485 -1.3505413870420713 -1.899581299107325 L -1.4065755306939702 -1.8131569116625863 Q -1.4065755306939702 -1.8131569116625863 -1.4137076403374682 -1.8177810885658983 Q -1.420839749980966 -1.8224052654692104 -1.420839749980966 -1.8224052654692104 L -1.3740539601356911 -1.8945654336269535 Q -1.341956732218584 -1.9440706652700563 -1.3434271799918447 -1.983161428671992 Q -1.3448976277651055 -2.022252192073928 -1.3698345676229202 -2.05272183320289 Q -1.394771507480735 -2.0831914743318514 -1.4308515915596067 -2.106584369254489 Q -1.4929428990441762 -2.1468419093539115 -1.54208876504286 -2.1399728588198554 Q -1.591234631041544 -2.133103808285799 -1.6320361919531208 -2.070173429078465 M -1.1696156640033673 -2.6922623383049507 L -0.7578228835866712 -2.137368018639767 Q -0.7327935105367417 -2.103640722799047 -0.7098014087995621 -2.10202416543626 Q -0.6868093070623824 -2.1004076080734735 -0.6538850420750126 -2.124841043669833 L -0.6413703555500478 -2.1079773957494727 Q -0.6556178175105759 -2.0986494898921375 -0.6842162881315221 -2.079294194024007 Q -0.7128147587524685 -2.0599388981558766 -0.7409208386197353 -2.0390810872809353 Q -0.7682238876336517 -2.018819213859564 -0.795436061320564 -1.996756856704597 Q -0.8226482350074763 -1.97469449954963 -0.8357038220608647 -1.9637605319855937 L -0.8482185085858294 -1.980624179905954 Q -0.8152942435984596 -2.005057615502314 -0.8101802654683724 -2.0275319837400416 Q -0.8050662873382852 -2.0500063519777694 -0.8300956603882146 -2.0837336478184896 L -1.1703759463765409 -2.542264265081615 Q -1.1971931317871793 -2.578400653482387 -1.2228542806925367 -2.5861308175723066 Q -1.248515429597894 -2.5938609816622256 -1.2838487871453153 -2.567639733705157 L -1.29636347367028 -2.5845033816255167 Q -1.2688786740023552 -2.6011642875796976 -1.2447877484018408 -2.61904241118679 Q -1.2214998536546768 -2.6363245973403124 -1.202305317128383 -2.6549275478466376 Q -1.1831107806020895 -2.673530498352963 -1.1696156640033673 -2.6922623383049507 M -0.537737720305799 -2.723904805575571 Q -0.47674538792437965 -2.7432938589478852 -0.41965941220754854 -2.732060365437077 Q -0.36257343649071727 -2.720826871926269 -0.31532954055365237 -2.6728866560664324 Q -0.26808564461658735 -2.624946440206595 -0.23900206455811568 -2.533457941634466 Q -0.20991848449964395 -2.441969443062337 -0.22095938234309054 -2.3760255383037423 Q -0.23200028018653707 -2.310081633545148 -0.2721208342025931 -2.267946836222214 Q -0.3122413882186491 -2.2258120388992797 -0.3732337206000685 -2.2064229855269653 Q -0.4332730477880282 -2.1873368861135933 -0.4908355261015892 -2.19841890264493 Q -0.5483980044151502 -2.209500919176267 -0.595490423372744 -2.256964632439374 Q -0.6425828423303378 -2.304428345702481 -0.6716664223888095 -2.3959168442746104 Q -0.7007500024472813 -2.4874053428467393 -0.6898605815833059 -2.553825750202064 Q -0.6789711607193305 -2.620246157557388 -0.6383741041065446 -2.6625324318597934 Q -0.5977770474937587 -2.7048187061621984 -0.537737720305799 -2.723904805575571 M -0.5316786411269507 -2.704844701706377 Q -0.5859999371541524 -2.6875763260466594 -0.6029103431378283 -2.6202912001311405 Q -0.6198207491215042 -2.553006074215621 -0.5792249186232208 -2.4253033782920244 Q -0.5386290881249374 -2.2976006823684276 -0.48612159196552784 -2.2529076980524345 Q -0.4336140958061184 -2.2082147137364414 -0.3792927997789167 -2.225483089396159 Q -0.3249715037517151 -2.2427514650558766 -0.30790962078856804 -2.3095600883746656 Q -0.29084773782542095 -2.376368711693455 -0.33144356832370436 -2.504071407617052 Q -0.3720393988219878 -2.631774103540649 -0.42469837196086846 -2.6769435904533716 Q -0.47735734509974914 -2.7221130773660946 -0.5316786411269507 -2.704844701706377 M 0.0802202016976159 -2.088504488965707 Q 0.027627002427854014 -2.0950585251703 -0.01765197808966086 -2.1117861646718707 Q -0.06293095860717571 -2.1285138041734415 -0.08830617235019984 -2.1553577704879756 Q -0.11368138609322398 -2.1822017368025097 -0.10922958791651932 -2.2179254193253666 Q -0.10490145080027868 -2.2526567773337 -0.07402483788201156 -2.274002380503803 Q -0.043148224963744417 -2.2953479836739055 0.0060909455194306655 -2.3023124714604424 L 0.01006631563914924 -2.285693312865277 Q -0.012630451103622695 -2.281467584593819 -0.02812755206217661 -2.2622363635748513 Q -0.04362465302073053 -2.2430051425558832 -0.046839840592795 -2.2172047051782644 Q -0.05252824937413985 -2.171557777510169 -0.013384153488246398 -2.141990231834615 Q 0.025759942397647062 -2.1124226861590607 0.09323800938526611 -2.104013734047508 Q 0.13789261253883756 -2.098448986326627 0.18198466885869755 -2.1045432926436978 Q 0.22607672517855762 -2.1106375989607686 0.2572006602177528 -2.133967851159919 Q 0.28832459525694787 -2.1572981033590697 0.29376568191736474 -2.200960381998117 Q 0.2978464969126773 -2.233707090977403 0.27718558362134427 -2.2579481029605692 Q 0.25652467033001103 -2.2821891149437357 0.1880542788278682 -2.2907217281157526 L 0.11462226475310633 -2.29987264659009 Q 0.08286788028834441 -2.3038298005249387 0.05371645015495019 -2.3125012549114783 Q 0.024565020021556 -2.321172709298018 0.007689431213027925 -2.339399461679215 Q -0.009186157595500163 -2.3576262140604127 -0.005105342600187551 -2.390372923039698 Q -0.0009008665444109332 -2.424111956533508 0.030779543266872322 -2.451907669048015 Q 0.06245995307815558 -2.4797033815625227 0.1409651066627539 -2.503175511007007 L 0.15176005129286343 -2.4927606576507246 Q 0.11579511871070156 -2.4791032924450724 0.08869927622902199 -2.4638368154379826 Q 0.06160343374734242 -2.448570338430893 0.05851190723574198 -2.4237622255677973 Q 0.05455475330089338 -2.3920078411030357 0.10218632999803623 -2.3860721102007627 L 0.22622689431351242 -2.3706144776427602 Q 0.2679045239235124 -2.3654207131032714 0.3016481114635394 -2.3491228512825133 Q 0.33539169900356647 -2.3328249894617548 0.3540076507510258 -2.3043040087539275 Q 0.37262360249848514 -2.2757830280460998 0.3674298379589963 -2.2341053984360997 Q 0.3616177681171875 -2.187466146253481 0.3267779292024485 -2.1504906729719253 Q 0.29193809028770945 -2.1135151996903696 0.2297414246317103 -2.0955687576676216 Q 0.16754475897571117 -2.0776223156448737 0.0802202016976159 -2.088504488965707 M 0.13476990951630632 -2.4858083139874347 Q 0.08614600830463964 -2.4918677059501713 0.048493435221343556 -2.513187502858375 Q 0.010840862138047497 -2.5345072997665787 -0.00765446457975949 -2.5720828621655842 Q -0.026149791297566463 -2.60965842456459 -0.019348432972045457 -2.6642362728633997 Q -0.012547074646524436 -2.718814121162209 0.014604526303763826 -2.7507012747798703 Q 0.04175612725405209 -2.7825884283975313 0.08348951533266077 -2.794015340468613 Q 0.12522290341126943 -2.805442252539695 0.17384680462293614 -2.7993828605769586 Q 0.2234630303491266 -2.7931998075537576 0.2606194411751608 -2.771941841175786 Q 0.29777585200119494 -2.750683874797814 0.3162711787190019 -2.7131083123988087 Q 0.33476650543680886 -2.6755327499998027 0.3279651471112879 -2.620954901700993 Q 0.3211637887857669 -2.5663770534021837 0.29401218783547867 -2.5344898997845227 Q 0.26686058688519043 -2.502602746166862 0.2256233610638436 -2.491114003565548 Q 0.18438613524249678 -2.4796252609642337 0.13476990951630632 -2.4858083139874347 M 0.13699580860465865 -2.503670155248863 Q 0.1747041401565634 -2.4989710349512304 0.19974894903274584 -2.5260820575869682 Q 0.22479375790892828 -2.553193080222706 0.23468664274604975 -2.632579041384611 Q 0.24457952758317122 -2.7119650025465156 0.22695438233482987 -2.7443934507822063 Q 0.20932923708648857 -2.776821899017897 0.17162090553458378 -2.7815210193155298 Q 0.13490489849720286 -2.7860964785526985 0.10936392736375847 -2.7590472864471924 Q 0.08382295623031413 -2.731998094341687 0.07393007139319266 -2.652612133179782 Q 0.06403718655607119 -2.5732261720178773 0.08215849406167444 -2.5407358932519544 Q 0.1002798015672777 -2.508245614486032 0.13699580860465865 -2.503670155248863 M 0.3064776666958512 -2.6992127331646634 L 0.2894814528576707 -2.7083849038546823 Q 0.3075784721167807 -2.7403926825019957 0.34453269318265467 -2.7619886438238384 Q 0.38148691424852865 -2.7835846051456805 0.41820292128590975 -2.7790091459085122 Q 0.4440033586635288 -2.7757939583364477 0.45808746551918134 -2.759426675908428 Q 0.4721715723748341 -2.7430593934804084 0.46858540162137763 -2.7142819825592177 Q 0.464751908746993 -2.68351992260898 0.4468327910015498 -2.6731562736750885 Q 0.42891367325610674 -2.662792624741197 0.4120441565092021 -2.6648948627690854 Q 0.3971592887913449 -2.6667497786760457 0.38555751123740756 -2.6787767798645783 Q 0.37395573368347024 -2.6908037810531105 0.3748152890450951 -2.713874567008086 Q 0.37567484440671983 -2.736945352963062 0.3960038348158055 -2.7706904585184944 L 0.40853307032322295 -2.7661058911888907 Q 0.36487686374579864 -2.7554224634959987 0.34485095392624976 -2.740282683580184 Q 0.3248250441067009 -2.72514290366437 0.3064776666958512 -2.6992127331646634 M 0.8777983821312259 -2.8416304459958233 Q 0.9011709128041108 -2.8302407660202906 0.9099276113906374 -2.804837612084908 Q 0.918684309977164 -2.779434458149526 0.9072946300016311 -2.756061927476641 Q 0.8959049500260985 -2.732689396803756 0.8705017960907162 -2.7239326982172294 Q 0.845098642155334 -2.715175999630703 0.821726111482449 -2.7265656796062356 Q 0.7983535808095641 -2.7379553595817683 0.7895968822230375 -2.763358513517151 Q 0.780840183636511 -2.788761667452533 0.7922298636120437 -2.8121341981254178 Q 0.8036195435875765 -2.8355067287983027 0.8290226975229587 -2.8442634273848295 Q 0.8544258514583409 -2.853020125971356 0.8777983821312259 -2.8416304459958233 M 0.8198460006249829 -2.6040035925516998 L 0.630164022570918 -2.2147610624994236 Q 0.611765308764288 -2.1770054360278404 0.620925850577461 -2.155855152963798 Q 0.6300863923906339 -2.134704869899756 0.6669430753747986 -2.1167442207075693 L 0.6577437184714836 -2.097866407471778 Q 0.6428997437998102 -2.106212449404737 0.612543290405532 -2.122674093834168 Q 0.5821868370112538 -2.139135738263599 0.550723814951601 -2.1544679997691243 Q 0.5201597363793669 -2.1693621966602055 0.4880396173980487 -2.1833460429346023 Q 0.4559194984167306 -2.197329889208999 0.4401993945161699 -2.203878044167121 L 0.4493987514194848 -2.222755857402913 Q 0.48625543440364954 -2.2047952082107267 0.5085579146501295 -2.210613229769244 Q 0.5308603948966094 -2.2164312513277613 0.5492591087032392 -2.2541868777993446 L 0.686373333024076 -2.5355561893613827 Q 0.7060862406740367 -2.576008646295222 0.701121534085875 -2.60234496510582 Q 0.6961568274977132 -2.628681283916418 0.6566033140512926 -2.6479561269519354 L 0.6658026709546074 -2.666833940187727 Q 0.6932546687086736 -2.650119042063277 0.7202229733312331 -2.63697710362997 Q 0.7462923344663741 -2.6242732298111062 0.7716475630335209 -2.615810819734317 Q 0.7970027916006677 -2.607348409657528 0.8198460006249829 -2.6040035925516998 M 1.3968998003339015 -2.50662559838561 Q 1.4182386624971417 -2.4884968101862226 1.4297679348190795 -2.4688607240251113 Q 1.4412972071410173 -2.4492246378639995 1.4457213620059886 -2.429720103680104 Q 1.4493834146508442 -2.410863026217615 1.4451209248692631 -2.39348973692451 Q 1.4408584350876819 -2.3761164476314054 1.4292042141023615 -2.362398607669322 Q 1.4143127095100079 -2.3448702566066606 1.3931693253871718 -2.343150574126025 Q 1.3720259412643356 -2.3414308916453894 1.3544975902016743 -2.3563223962377435 Q 1.3377313413591283 -2.3705664441086904 1.3345447771876158 -2.3922999622035785 Q 1.3313582130161035 -2.4140334802984666 1.3475446310512704 -2.4330860358013595 Q 1.361141222200811 -2.44909018242379 1.3783223351104286 -2.451551758989117 Q 1.3955034480200461 -2.454013335554445 1.4125732170878718 -2.444760066728181 Q 1.4161140209201846 -2.4535613568734425 1.4107962118578814 -2.466608230321778 Q 1.4054784027955785 -2.4796551037701136 1.3894742561731483 -2.493251694919654 Q 1.3719459051104868 -2.508143199512008 1.3528966512645106 -2.511205213214061 Q 1.3338473974185345 -2.514267226916114 1.3159817131735794 -2.5071385996668067 Q 1.2932398953826505 -2.498903933701257 1.2640841347839258 -2.4692190617306746 Q 1.2349283741852013 -2.439534189760092 1.1792470961442265 -2.3739933988301405 L 1.1624132213876528 -2.3541787411071318 L 1.2439581589400348 -2.2849008719166166 L 1.2310090245119012 -2.269658827514302 L 1.1494640869595192 -2.3389366967048173 L 0.896308508889506 -2.040954728639571 Q 0.8645831295405785 -2.0036117198539007 0.8756200069106662 -1.9725845166619012 Q 0.886656884280754 -1.9415573134699011 0.9239998930664242 -1.9098319341209737 L 0.9104033019168838 -1.8938277874985436 Q 0.893522407575629 -1.9094813943110132 0.8624852994128788 -1.9378177299402675 Q 0.8314481912501286 -1.9661540655695215 0.7956293869046898 -1.9965845314756359 Q 0.7697179114207553 -2.018598060003463 0.7432163019647687 -2.039144706840413 Q 0.7167146925087821 -2.059691353677364 0.7031114980454082 -2.0699360157211615 L 0.7167080891949485 -2.085940162343592 Q 0.747954280219693 -2.059394436765918 0.7710029198928183 -2.0594954774430363 Q 0.7940515595659436 -2.059596518120155 0.8212447418650244 -2.0916048113650154 L 1.0808748871491045 -2.397207801631419 L 1.0199067095398469 -2.449004339343954 L 1.0328558439679805 -2.464246383746268 L 1.0938240215772381 -2.4124498460337334 Q 1.1320239681402324 -2.457413877020561 1.1617327480970783 -2.484660682218156 Q 1.1914415280539243 -2.5119074874157516 1.2182771690352876 -2.526505376753576 Q 1.2451128100166509 -2.5411032660914006 1.2738368000697968 -2.5455678372272192 Q 1.303970349064465 -2.550147053861747 1.3363361836270422 -2.540364275469702 Q 1.36870201818962 -2.530581497077657 1.3968998003339015 -2.50662559838561 M 1.6410133034543788 -1.7155477595624495 L 1.623768163834605 -1.7054183390709055 Q 1.6124207004056608 -1.720788279660536 1.5913833092975953 -1.7269873259876969 Q 1.5703459181895298 -1.7331863723148577 1.530489558567879 -1.7260120711147655 L 1.076657808712084 -1.649639675428712 L 1.0680478012942716 -1.6642980441055195 L 1.3568369753500527 -2.0473199924951384 Q 1.3808420481416444 -2.083455245092434 1.37880151852537 -2.103712002949631 Q 1.3767609889090955 -2.1239687608068283 1.3706833366141689 -2.1343158445786923 L 1.3887907332149312 -2.1449517360948134 Q 1.3973463248126636 -2.124462669439331 1.4082082439310337 -2.1030087953587366 Q 1.4190701630494034 -2.0815549212781423 1.4332513517375651 -2.0574117258104594 Q 1.4489519534994584 -2.03068175939981 1.4681497178093492 -2.0019468356048553 Q 1.4873474821192403 -1.9732119118098999 1.5042661268185338 -1.948357144429394 L 1.4861587302177715 -1.9377212529132726 Q 1.4734969546033412 -1.9592776774379896 1.4606028701906255 -1.9743190399812487 Q 1.4477087857779094 -1.989360402524508 1.4300869334877215 -1.9848084444993503 Q 1.4124650811975337 -1.9802564864741925 1.3848602954138214 -1.9443263347651425 L 1.1841678522352692 -1.6837950636074872 L 1.1794045121258288 -1.687955663444265 L 1.4940947892622574 -1.740586732935562 Q 1.5291333929543875 -1.7460909359937566 1.5446812265222238 -1.758122763425484 Q 1.5602290600900601 -1.7701545908572112 1.5597351514575573 -1.7907399267607793 Q 1.5592412428250544 -1.8113252626643477 1.5427327999022524 -1.8433794560290946 L 1.5599779395220261 -1.853508876520639 Q 1.568232160983427 -1.8374817798382654 1.5743851558124364 -1.8260192035731238 Q 1.5805381506414458 -1.8145566273079823 1.5864379099581665 -1.8035251795333354 Q 1.5923376692748872 -1.7924937317586882 1.5999347346435453 -1.7795598770438579 Q 1.6115835682088209 -1.759727966481118 1.621815539144488 -1.7442826833574046 Q 1.6320475100801548 -1.7288374002336913 1.6410133034543788 -1.7155477595624495 M 1.076657808712084 -1.649639675428712 L 0.9844214365304438 -1.6348934336441103 Q 0.9578003017599547 -1.6308542278395672 0.9378239873250864 -1.631297918722136 Q 0.9178476728902182 -1.6317416096047046 0.9022851938044162 -1.6365175121062197 Q 0.8812478026963507 -1.6427165584333805 0.8653630267602145 -1.6589006213799569 Q 0.8494782508240782 -1.6750846843265332 0.8403617723816885 -1.6906053099843295 Q 0.8307388229147217 -1.7069881926231145 0.8289243209006958 -1.7238984730004794 Q 0.8271098188866699 -1.7408087533778445 0.8341920489088224 -1.7554064250385348 Q 0.8412742789309746 -1.7700040966992252 0.8576571615697597 -1.779627046166192 Q 0.878351329113488 -1.791782350756045 0.8979446496819048 -1.7870545828785729 Q 0.9175379702503216 -1.782326815001101 0.9301997458647516 -1.7607703904763838 Q 0.940835637380873 -1.7426629938756215 0.9380856189776667 -1.7236514868658648 Q 0.9353356005744606 -1.704639979856108 0.9155036900117209 -1.6929911462908322 Q 0.9008453213349134 -1.6843811388730199 0.8873087263474202 -1.6857080134505802 Q 0.873772131359927 -1.6870348880281403 0.8630274082036458 -1.6934808886715527 Q 0.8631780932718114 -1.691249903684998 0.8639377998086772 -1.689956518213515 Q 0.8646975063455431 -1.688663132742032 0.8652039773701202 -1.6878008757610434 Q 0.8788786950337047 -1.6645199372743489 0.9054663406981167 -1.6557822546282648 Q 0.9320539863625286 -1.6470445719821807 0.9755100589762998 -1.6540137722940271 L 1.0739329150930266 -1.6700743262641145 L 1.076657808712084 -1.649639675428712" fill="#ffffff" fill-rule="nonzero"></path></g><g transform="matrix(1,0,0,1,0,0)"><path d=" M -0.9934986572265625 0.07649999999999996 Q -1.0009986572265626 0.06799999999999995 -1.0109986572265626 0.061249999999999916 Q -1.0209986572265626 0.05449999999999994 -1.0334986572265625 0.04949999999999993 Q -1.0459986572265625 0.04449999999999993 -1.0602486572265626 0.041499999999999926 Q -1.0744986572265625 0.03849999999999992 -1.0904986572265625 0.03849999999999992 Q -1.1369986572265625 0.03849999999999992 -1.1587486572265624 0.05624999999999991 Q -1.1804986572265626 0.07399999999999995 -1.1804986572265626 0.10449999999999993 Q -1.1804986572265626 0.12549999999999992 -1.1702486572265625 0.13749999999999993 Q -1.1599986572265626 0.14949999999999994 -1.1379986572265626 0.15699999999999992 Q -1.1159986572265626 0.16449999999999992 -1.0819986572265625 0.17249999999999993 Q -1.0439986572265625 0.18049999999999994 -1.0164986572265624 0.19149999999999992 Q -0.9889986572265625 0.20249999999999993 -0.9739986572265624 0.22124999999999992 Q -0.9589986572265625 0.23999999999999994 -0.9589986572265625 0.2719999999999999 Q -0.9589986572265625 0.29649999999999993 -0.9684986572265625 0.31449999999999995 Q -0.9779986572265624 0.3324999999999999 -0.9949986572265626 0.3444999999999999 Q -1.0119986572265625 0.35649999999999993 -1.0354986572265625 0.36224999999999996 Q -1.0589986572265624 0.36799999999999994 -1.0869986572265624 0.36799999999999994 Q -1.1144986572265625 0.36799999999999994 -1.1397486572265625 0.36224999999999996 Q -1.1649986572265625 0.35649999999999993 -1.1874986572265624 0.34524999999999995 Q -1.2099986572265624 0.33399999999999996 -1.2294986572265625 0.31649999999999995 L -1.2119986572265624 0.2879999999999999 Q -1.2024986572265626 0.29799999999999993 -1.1892486572265626 0.3067499999999999 Q -1.1759986572265624 0.31549999999999995 -1.1597486572265625 0.32249999999999995 Q -1.1434986572265624 0.3294999999999999 -1.1247486572265626 0.33324999999999994 Q -1.1059986572265625 0.3369999999999999 -1.0859986572265625 0.3369999999999999 Q -1.0434986572265625 0.3369999999999999 -1.0197486572265624 0.32149999999999995 Q -0.9959986572265624 0.30599999999999994 -0.9959986572265624 0.27549999999999997 Q -0.9959986572265624 0.25349999999999995 -1.0079986572265625 0.24024999999999994 Q -1.0199986572265625 0.22699999999999992 -1.0439986572265625 0.21849999999999994 Q -1.0679986572265625 0.20999999999999994 -1.1029986572265624 0.20199999999999993 Q -1.1399986572265626 0.19349999999999992 -1.1654986572265624 0.18299999999999994 Q -1.1909986572265625 0.17249999999999993 -1.2037486572265625 0.15524999999999994 Q -1.2164986572265626 0.13799999999999993 -1.2164986572265626 0.10949999999999993 Q -1.2164986572265626 0.07649999999999996 -1.2002486572265625 0.05374999999999991 Q -1.1839986572265624 0.030999999999999917 -1.1554986572265624 0.019249999999999934 Q -1.1269986572265625 0.007499999999999951 -1.0899986572265625 0.007499999999999951 Q -1.0664986572265625 0.007499999999999951 -1.0462486572265626 0.012249999999999928 Q -1.0259986572265625 0.016999999999999904 -1.0087486572265625 0.025999999999999912 Q -0.9914986572265625 0.03499999999999992 -0.9764986572265625 0.04849999999999993 L -0.9934986572265625 0.07649999999999996 M -0.9045013427734375 0.36499999999999994 L -0.9045013427734375 0.10449999999999993 L -0.8705013427734375 0.10449999999999993 L -0.8705013427734375 0.36499999999999994 L -0.9045013427734375 0.36499999999999994 M -0.9045013427734375 0.04999999999999993 L -0.9045013427734375 -5.551115123125783e-17 L -0.8705013427734375 -5.551115123125783e-17 L -0.8705013427734375 0.04999999999999993 L -0.9045013427734375 0.04999999999999993 M -0.5764925537109375 0.36499999999999994 L -0.6104925537109375 0.36499999999999994 L -0.6104925537109375 0.21949999999999995 Q -0.6104925537109375 0.17349999999999993 -0.6239925537109375 0.15224999999999994 Q -0.6374925537109375 0.13099999999999992 -0.6664925537109375 0.13099999999999992 Q -0.6864925537109375 0.13099999999999992 -0.7059925537109375 0.14074999999999993 Q -0.7254925537109375 0.15049999999999994 -0.7402425537109375 0.16724999999999993 Q -0.7549925537109375 0.18399999999999994 -0.7614925537109375 0.20549999999999993 L -0.7614925537109375 0.36499999999999994 L -0.7954925537109375 0.36499999999999994 L -0.7954925537109375 0.10449999999999993 L -0.7644925537109375 0.10449999999999993 L -0.7644925537109375 0.16349999999999992 Q -0.7539925537109375 0.14449999999999993 -0.7369925537109375 0.13024999999999992 Q -0.7199925537109375 0.11599999999999994 -0.6984925537109374 0.10799999999999993 Q -0.6769925537109375 0.09999999999999992 -0.6539925537109375 0.09999999999999992 Q -0.6324925537109375 0.09999999999999992 -0.6174925537109375 0.10799999999999993 Q -0.6024925537109375 0.11599999999999994 -0.5934925537109375 0.13074999999999992 Q -0.5844925537109376 0.14549999999999993 -0.5804925537109376 0.16624999999999993 Q -0.5764925537109375 0.18699999999999994 -0.5764925537109375 0.21249999999999994 L -0.5764925537109375 0.36499999999999994 M -0.39098864746093753 0.36999999999999994 Q -0.4194886474609375 0.36999999999999994 -0.4432386474609375 0.35924999999999996 Q -0.4669886474609375 0.3484999999999999 -0.4847386474609375 0.3294999999999999 Q -0.5024886474609375 0.31049999999999994 -0.5122386474609375 0.2859999999999999 Q -0.5219886474609375 0.26149999999999995 -0.5219886474609375 0.23399999999999993 Q -0.5219886474609375 0.19699999999999993 -0.5054886474609375 0.16649999999999993 Q -0.4889886474609375 0.13599999999999993 -0.4594886474609375 0.11799999999999994 Q -0.4299886474609375 0.09999999999999992 -0.3914886474609375 0.09999999999999992 Q -0.3549886474609375 0.09999999999999992 -0.3269886474609375 0.11674999999999994 Q -0.2989886474609375 0.13349999999999992 -0.2854886474609375 0.16199999999999992 L -0.3184886474609375 0.17249999999999993 Q -0.32948864746093753 0.15249999999999994 -0.34923864746093747 0.14124999999999993 Q -0.3689886474609375 0.12999999999999992 -0.39298864746093753 0.12999999999999992 Q -0.4189886474609375 0.12999999999999992 -0.4404886474609375 0.14349999999999993 Q -0.4619886474609375 0.15699999999999992 -0.4747386474609375 0.18049999999999994 Q -0.4874886474609375 0.20399999999999993 -0.4874886474609375 0.23399999999999993 Q -0.4874886474609375 0.26349999999999996 -0.4744886474609375 0.2874999999999999 Q -0.4614886474609375 0.31149999999999994 -0.43998864746093747 0.32574999999999993 Q -0.4184886474609375 0.3399999999999999 -0.3924886474609375 0.3399999999999999 Q -0.37548864746093746 0.3399999999999999 -0.35973864746093753 0.33399999999999996 Q -0.3439886474609375 0.32799999999999996 -0.3322386474609375 0.3177499999999999 Q -0.3204886474609375 0.30749999999999994 -0.3164886474609375 0.29549999999999993 L -0.2829886474609375 0.30549999999999994 Q -0.2899886474609375 0.32399999999999995 -0.3062386474609375 0.33874999999999994 Q -0.3224886474609375 0.3534999999999999 -0.34423864746093746 0.36174999999999996 Q -0.3659886474609375 0.36999999999999994 -0.39098864746093753 0.36999999999999994 M -0.1194854736328125 0.36999999999999994 Q -0.1474854736328125 0.36999999999999994 -0.1714854736328125 0.35924999999999996 Q -0.1954854736328125 0.3484999999999999 -0.2129854736328125 0.32974999999999993 Q -0.2304854736328125 0.31099999999999994 -0.2402354736328125 0.2864999999999999 Q -0.2499854736328125 0.2619999999999999 -0.2499854736328125 0.23399999999999993 Q -0.2499854736328125 0.19749999999999993 -0.2332354736328125 0.16699999999999993 Q -0.2164854736328125 0.13649999999999993 -0.18698547363281248 0.11824999999999994 Q -0.1574854736328125 0.09999999999999992 -0.1199854736328125 0.09999999999999992 Q -0.0814854736328125 0.09999999999999992 -0.0527354736328125 0.11849999999999994 Q -0.023985473632812504 0.13699999999999993 -0.007485473632812489 0.16724999999999993 Q 0.009014526367187525 0.19749999999999993 0.009014526367187525 0.23349999999999993 Q 0.009014526367187525 0.23749999999999993 0.009014526367187525 0.24124999999999994 Q 0.009014526367187525 0.24499999999999994 0.008514526367187525 0.24699999999999994 L -0.2144854736328125 0.24699999999999994 Q -0.2119854736328125 0.2749999999999999 -0.1987354736328125 0.29674999999999996 Q -0.18548547363281248 0.31849999999999995 -0.1642354736328125 0.33124999999999993 Q -0.1429854736328125 0.3439999999999999 -0.1179854736328125 0.3439999999999999 Q -0.09248547363281251 0.3439999999999999 -0.06973547363281249 0.33099999999999996 Q -0.0469854736328125 0.31799999999999995 -0.03798547363281249 0.29699999999999993 L -0.00848547363281249 0.30499999999999994 Q -0.016485473632812497 0.32349999999999995 -0.032985473632812484 0.3384999999999999 Q -0.0494854736328125 0.3534999999999999 -0.07173547363281249 0.36174999999999996 Q -0.09398547363281248 0.36999999999999994 -0.1194854736328125 0.36999999999999994 M -0.2154854736328125 0.22249999999999992 L -0.022985473632812503 0.22249999999999992 Q -0.024985473632812505 0.19399999999999992 -0.03823547363281249 0.17249999999999993 Q -0.0514854736328125 0.15099999999999994 -0.07273547363281249 0.13874999999999993 Q -0.09398547363281248 0.12649999999999992 -0.1194854736328125 0.12649999999999992 Q -0.1449854736328125 0.12649999999999992 -0.1659854736328125 0.13874999999999993 Q -0.18698547363281248 0.15099999999999994 -0.2002354736328125 0.17274999999999993 Q -0.2134854736328125 0.19449999999999992 -0.2154854736328125 0.22249999999999992 M 0.1735045166015625 0.36499999999999994 Q 0.1735045166015625 0.3479999999999999 0.1765045166015625 0.33074999999999993 Q 0.1795045166015625 0.31349999999999995 0.1880045166015625 0.29649999999999993 Q 0.19650451660156248 0.2794999999999999 0.2130045166015625 0.26374999999999993 Q 0.2295045166015625 0.24799999999999994 0.2565045166015625 0.23399999999999993 Q 0.2710045166015625 0.22649999999999992 0.2865045166015625 0.21924999999999994 Q 0.30200451660156247 0.21199999999999994 0.3157545166015625 0.20324999999999993 Q 0.3295045166015625 0.19449999999999992 0.3377545166015625 0.18324999999999994 Q 0.3460045166015625 0.17199999999999993 0.3460045166015625 0.15649999999999994 Q 0.3460045166015625 0.14399999999999993 0.3387545166015625 0.13199999999999992 Q 0.3315045166015625 0.11999999999999994 0.3167545166015625 0.11249999999999993 Q 0.30200451660156247 0.10499999999999993 0.2800045166015625 0.10499999999999993 Q 0.2640045166015625 0.10499999999999993 0.25100451660156253 0.10949999999999993 Q 0.23800451660156252 0.11399999999999993 0.2280045166015625 0.12074999999999994 Q 0.2180045166015625 0.12749999999999992 0.2110045166015625 0.13424999999999992 Q 0.2040045166015625 0.14099999999999993 0.1995045166015625 0.14549999999999993 L 0.1780045166015625 0.12199999999999994 Q 0.1805045166015625 0.11899999999999994 0.1892545166015625 0.1112499999999999 Q 0.19800451660156249 0.10349999999999993 0.2117545166015625 0.09499999999999992 Q 0.2255045166015625 0.08649999999999991 0.2442545166015625 0.0804999999999999 Q 0.2630045166015625 0.07449999999999996 0.2855045166015625 0.07449999999999996 Q 0.3160045166015625 0.07449999999999996 0.3377545166015625 0.08524999999999994 Q 0.3595045166015625 0.09599999999999992 0.37100451660156253 0.11399999999999993 Q 0.3825045166015625 0.13199999999999992 0.3825045166015625 0.15299999999999994 Q 0.3825045166015625 0.17349999999999993 0.3737545166015625 0.18824999999999995 Q 0.3650045166015625 0.20299999999999993 0.3512545166015625 0.21374999999999994 Q 0.3375045166015625 0.22449999999999992 0.3227545166015625 0.23224999999999993 Q 0.3080045166015625 0.23999999999999994 0.29600451660156246 0.24549999999999994 Q 0.2725045166015625 0.25649999999999995 0.2565045166015625 0.26749999999999996 Q 0.2405045166015625 0.2784999999999999 0.23100451660156252 0.28974999999999995 Q 0.2215045166015625 0.30099999999999993 0.2162545166015625 0.3117499999999999 Q 0.2110045166015625 0.32249999999999995 0.2090045166015625 0.33399999999999996 L 0.38800451660156254 0.33399999999999996 L 0.38800451660156254 0.36499999999999994 L 0.1735045166015625 0.36499999999999994 M 0.6905025634765625 0.21849999999999994 Q 0.6905025634765625 0.26249999999999996 0.6742525634765625 0.29674999999999996 Q 0.6580025634765625 0.33099999999999996 0.6295025634765625 0.3504999999999999 Q 0.6010025634765626 0.36999999999999994 0.5650025634765625 0.36999999999999994 Q 0.5290025634765625 0.36999999999999994 0.5007525634765625 0.3504999999999999 Q 0.4725025634765625 0.33099999999999996 0.4560025634765625 0.29674999999999996 Q 0.4395025634765625 0.26249999999999996 0.4395025634765625 0.21849999999999994 Q 0.4395025634765625 0.17449999999999993 0.4560025634765625 0.14024999999999993 Q 0.4725025634765625 0.10599999999999993 0.5007525634765625 0.08624999999999994 Q 0.5290025634765625 0.06649999999999995 0.5650025634765625 0.06649999999999995 Q 0.6010025634765626 0.06649999999999995 0.6295025634765625 0.08624999999999994 Q 0.6580025634765625 0.10599999999999993 0.6742525634765625 0.14024999999999993 Q 0.6905025634765625 0.17449999999999993 0.6905025634765625 0.21849999999999994 M 0.6560025634765625 0.21849999999999994 Q 0.6560025634765625 0.18299999999999994 0.6445025634765625 0.15599999999999994 Q 0.6330025634765625 0.12899999999999992 0.6125025634765625 0.1137499999999999 Q 0.5920025634765624 0.09849999999999992 0.5650025634765625 0.09849999999999992 Q 0.5380025634765625 0.09849999999999992 0.5175025634765625 0.1137499999999999 Q 0.4970025634765625 0.12899999999999992 0.4852525634765625 0.15599999999999994 Q 0.4735025634765625 0.18299999999999994 0.4735025634765625 0.21849999999999994 Q 0.4735025634765625 0.25399999999999995 0.4852525634765625 0.2809999999999999 Q 0.4970025634765625 0.30799999999999994 0.5175025634765625 0.32299999999999995 Q 0.5380025634765625 0.3379999999999999 0.5650025634765625 0.3379999999999999 Q 0.5920025634765624 0.3379999999999999 0.6125025634765625 0.3227499999999999 Q 0.6330025634765625 0.30749999999999994 0.6445025634765625 0.28074999999999994 Q 0.6560025634765625 0.25399999999999995 0.6560025634765625 0.21849999999999994 M 0.7400023193359375 0.36499999999999994 Q 0.7400023193359375 0.3479999999999999 0.7430023193359375 0.33074999999999993 Q 0.7460023193359375 0.31349999999999995 0.7545023193359375 0.29649999999999993 Q 0.7630023193359375 0.2794999999999999 0.7795023193359375 0.26374999999999993 Q 0.7960023193359375 0.24799999999999994 0.8230023193359375 0.23399999999999993 Q 0.8375023193359376 0.22649999999999992 0.8530023193359375 0.21924999999999994 Q 0.8685023193359375 0.21199999999999994 0.8822523193359375 0.20324999999999993 Q 0.8960023193359374 0.19449999999999992 0.9042523193359375 0.18324999999999994 Q 0.9125023193359375 0.17199999999999993 0.9125023193359375 0.15649999999999994 Q 0.9125023193359375 0.14399999999999993 0.9052523193359375 0.13199999999999992 Q 0.8980023193359374 0.11999999999999994 0.8832523193359375 0.11249999999999993 Q 0.8685023193359375 0.10499999999999993 0.8465023193359376 0.10499999999999993 Q 0.8305023193359375 0.10499999999999993 0.8175023193359375 0.10949999999999993 Q 0.8045023193359375 0.11399999999999993 0.7945023193359375 0.12074999999999994 Q 0.7845023193359375 0.12749999999999992 0.7775023193359375 0.13424999999999992 Q 0.7705023193359375 0.14099999999999993 0.7660023193359375 0.14549999999999993 L 0.7445023193359375 0.12199999999999994 Q 0.7470023193359375 0.11899999999999994 0.7557523193359375 0.1112499999999999 Q 0.7645023193359375 0.10349999999999993 0.7782523193359375 0.09499999999999992 Q 0.7920023193359375 0.08649999999999991 0.8107523193359375 0.0804999999999999 Q 0.8295023193359375 0.07449999999999996 0.8520023193359375 0.07449999999999996 Q 0.8825023193359375 0.07449999999999996 0.9042523193359375 0.08524999999999994 Q 0.9260023193359375 0.09599999999999992 0.9375023193359375 0.11399999999999993 Q 0.9490023193359375 0.13199999999999992 0.9490023193359375 0.15299999999999994 Q 0.9490023193359375 0.17349999999999993 0.9402523193359376 0.18824999999999995 Q 0.9315023193359375 0.20299999999999993 0.9177523193359375 0.21374999999999994 Q 0.9040023193359374 0.22449999999999992 0.8892523193359375 0.23224999999999993 Q 0.8745023193359375 0.23999999999999994 0.8625023193359375 0.24549999999999994 Q 0.8390023193359375 0.25649999999999995 0.8230023193359375 0.26749999999999996 Q 0.8070023193359375 0.2784999999999999 0.7975023193359375 0.28974999999999995 Q 0.7880023193359376 0.30099999999999993 0.7827523193359375 0.3117499999999999 Q 0.7775023193359375 0.32249999999999995 0.7755023193359375 0.33399999999999996 L 0.9545023193359375 0.33399999999999996 L 0.9545023193359375 0.36499999999999994 L 0.7400023193359375 0.36499999999999994 M 1.1500003662109375 0.24699999999999994 Q 1.1725003662109375 0.25049999999999994 1.1885003662109375 0.2629999999999999 Q 1.2045003662109375 0.27549999999999997 1.2135003662109376 0.29449999999999993 Q 1.2225003662109375 0.31349999999999995 1.2225003662109375 0.3374999999999999 Q 1.2225003662109375 0.36749999999999994 1.2080003662109375 0.39049999999999996 Q 1.1935003662109376 0.4134999999999999 1.1675003662109376 0.42599999999999993 Q 1.1415003662109375 0.43849999999999995 1.1070003662109376 0.43849999999999995 Q 1.0690003662109375 0.43849999999999995 1.0405003662109376 0.42324999999999996 Q 1.0120003662109376 0.4079999999999999 0.9975003662109375 0.38099999999999995 L 1.0210003662109375 0.35949999999999993 Q 1.0320003662109376 0.38099999999999995 1.0535003662109375 0.39424999999999993 Q 1.0750003662109375 0.4074999999999999 1.1070003662109376 0.4074999999999999 Q 1.1440003662109375 0.4074999999999999 1.1657503662109374 0.38924999999999993 Q 1.1875003662109376 0.37099999999999994 1.1875003662109376 0.3369999999999999 Q 1.1875003662109376 0.30299999999999994 1.1647503662109375 0.28274999999999995 Q 1.1420003662109375 0.26249999999999996 1.1000003662109374 0.26249999999999996 L 1.0875003662109375 0.26249999999999996 L 1.0875003662109375 0.23349999999999993 L 1.1010003662109376 0.23349999999999993 Q 1.1395003662109375 0.23349999999999993 1.1600003662109375 0.21549999999999994 Q 1.1805003662109375 0.19749999999999993 1.1805003662109375 0.16949999999999993 Q 1.1805003662109375 0.14899999999999994 1.1710003662109374 0.13549999999999993 Q 1.1615003662109376 0.12199999999999994 1.1452503662109375 0.11499999999999994 Q 1.1290003662109376 0.10799999999999993 1.1080003662109374 0.10799999999999993 Q 1.0795003662109375 0.10799999999999993 1.0577503662109375 0.12074999999999994 Q 1.0360003662109376 0.13349999999999992 1.0250003662109375 0.15599999999999994 L 1.0030003662109375 0.13499999999999993 Q 1.0115003662109374 0.11749999999999994 1.0275003662109374 0.10449999999999993 Q 1.0435003662109374 0.09149999999999991 1.0650003662109375 0.08424999999999994 Q 1.0865003662109376 0.0769999999999999 1.1110003662109376 0.0769999999999999 Q 1.1420003662109375 0.0769999999999999 1.1655003662109376 0.08824999999999994 Q 1.1890003662109374 0.09949999999999992 1.2025003662109375 0.11949999999999994 Q 1.2160003662109375 0.13949999999999993 1.2160003662109375 0.16649999999999993 Q 1.2160003662109375 0.18649999999999994 1.2080003662109375 0.20349999999999993 Q 1.2000003662109375 0.22049999999999995 1.1852503662109375 0.23199999999999993 Q 1.1705003662109374 0.24349999999999994 1.1500003662109375 0.24699999999999994" fill="#fbe585" fill-rule="nonzero"></path></g><g transform="matrix(1,0,0,1,0,0)"><g clip-path="url(#SvgjsClipPath1009)"><g clip-path="url(#SvgjsClipPath10067b6eb2e0-dc61-4a6b-9ac8-85821ad44f1f)"><path d=" M -0.05153827005754441 -1.7520131706094528 L -0.1556291036685098 -1.8313325802325504 C -0.15793080742074517 -1.85723346738078 -0.1796277757517627 -1.8770907745676568 -0.20563073289851386 -1.877094628474336 C -0.23228785651938588 -1.8771022968002888 -0.25430039946250715 -1.8562693873195513 -0.25575949428331246 -1.8296522247952391 L -0.35453012359029 -1.7690378243822154 C -0.36283184360654297 -1.774665307553021 -0.37263295089113013 -1.7776685154929592 -0.38266225845278223 -1.7776579372259242 C -0.4093393686960165 -1.7776569758115266 -0.43135757233268635 -1.7567931528826384 -0.432793783580077 -1.7301547312119232 L -0.5931295407185588 -1.6621307371682539 C -0.6047011199946631 -1.6710188961678882 -0.6188890758382386 -1.6758272527099438 -0.6334801811540018 -1.6758057350363753 C -0.6701456300612714 -1.6758057350681452 -0.6998692770548794 -1.6460833254255895 -0.699870803382784 -1.6094178765500895 C -0.699873431892033 -1.5841015133992882 -0.6854768177874543 -1.5609876047378386 -0.6627537416671976 -1.5498260608604444 L -0.6627537416671976 -1.4513373332880006 L -0.8233078344627984 -1.2383578090937446 C -0.831589066868069 -1.2419221218882144 -0.8405117499948582 -1.2437551891817862 -0.8495274595183502 -1.2437443432176263 C -0.8671348390283206 -1.2437450762628415 -0.8840212765202091 -1.2367508966556295 -0.8964715739814249 -1.224300599194414 C -0.9089218714426393 -1.2118503017331987 -0.9159160510498511 -1.194963864241311 -0.9159153180046373 -1.17735648473134 C -0.9159167841196688 -1.1597486263858618 -0.9089229281359296 -1.1428614788401739 -0.896472551213325 -1.1304105836054077 C -0.8840221742907216 -1.1179596883706413 -0.8671353179094992 -1.1109651293916136 -0.8495274595182968 -1.1109658625025576 C -0.8473883228267721 -1.1109658625025574 -0.8452574773626813 -1.111073648459885 -0.843170851778519 -1.1112726379195665 L -0.743015587481256 -0.8581138253245928 C -0.751308861160723 -0.8467768201311339 -0.7557684000802665 -0.8330893468993528 -0.7557453854158913 -0.8190427976646022 C -0.7557439735956152 -0.7930953071494697 -0.7406318399293953 -0.7695246963827818 -0.7170529904776332 -0.7586937165310796 L -0.7144661275019326 -0.5827151768676999 C -0.7416438554855835 -0.5737132687312032 -0.7599928324616242 -0.5483067358685498 -0.7599932576315946 -0.5196769742860543 C -0.7599917317243106 -0.4830132366914499 -0.7302719002281471 -0.45329093060488046 -0.6936081628877385 -0.4532863520572721 C -0.6756631524201532 -0.4532624446124651 -0.6584782463961658 -0.4605292219740127 -0.6459944071739794 -0.47342021613756025 L -0.4350517611989648 -0.3679447475363089 C -0.43320858941500234 -0.3416388212899446 -0.41133211186380003 -0.3212397664115889 -0.3849616922091037 -0.3212374993610354 C -0.3782921937768572 -0.32122654687898056 -0.37168795919186537 -0.3225505887870985 -0.36553810995017977 -0.3251316125373047 L -0.29950401050332587 -0.27725530128640186 C -0.3023145281332431 -0.269785734703216 -0.30374812174361043 -0.261868664830158 -0.30373530026405593 -0.2538878584862869 C -0.30373676630527424 -0.23628216965210713 -0.2967443396119387 -0.21939698162075305 -0.2842962742543159 -0.20694684305407218 C -0.27184820889669314 -0.1944967044873911 -0.2549641855820547 -0.18750146591915007 -0.2373584967478094 -0.18750000000000067 C -0.21975137134663203 -0.18749926688906537 -0.2028652179341306 -0.19449353468892894 -0.19041535931379383 -0.20694391162144843 C -0.17796550069345696 -0.21939428855396792 -0.1709719358889088 -0.236280733130946 -0.17097340200395983 -0.25388785848628714 C -0.17096756989736472 -0.2567117878984273 -0.1711457481081533 -0.25953309676977687 -0.17150680430560727 -0.2623338555527712 L -0.051543797542536796 -0.32777098662058246 L -0.051543797542536796 -1.7520131706094528 Z M -0.318604234890268 -0.8329084937649185 C -0.29067066286874765 -0.8414380329951796 -0.2715875997507672 -0.8672152547382179 -0.27158468381299417 -0.8964220600558038 C -0.2715862936434955 -0.931282971201135 -0.29855124623727614 -0.9602045123426765 -0.3333266911640874 -0.9626440939923467 L -0.3849616922091037 -1.1773426660188617 C -0.38072416559909983 -1.1802541297024889 -0.3768349794124821 -1.1836425623028468 -0.3733705561826496 -1.1874413810977051 L -0.10129945369043136 -1.0208650934042085 L -0.10129945369043136 -0.6107809819102976 L -0.24212871629511945 -0.6107809819102976 C -0.25049894030696673 -0.645412355068185 -0.2802107745752729 -0.6707196263411732 -0.31573270643736173 -0.6734737166799962 L -0.318604234890268 -0.8329112575074136 Z M -0.3430965208860831 -0.6709974034039581 C -0.37914424249766676 -0.6614346982876467 -0.4042446306854568 -0.628812247729303 -0.4042498510857446 -0.5915176967161166 C -0.4042672864013569 -0.5625018470421645 -0.3889710085843908 -0.5356306607349535 -0.3640125240926163 -0.5208322186492038 L -0.3906771116899598 -0.4213181426109174 C -0.39884380003817377 -0.4203892085885965 -0.4066548876914501 -0.41745862672354206 -0.4134171849435777 -0.4127864695270671 L -0.6271954307190573 -0.5196742105435583 L -0.6271954307190573 -0.5196742105435583 C -0.62719345306735 -0.5234981540838581 -0.6275207839592036 -0.52731516516173 -0.6281737955624924 -0.5310829395653212 L -0.36321932999638895 -0.8350034105765667 C -0.35769369334233525 -0.8327353771489132 -0.3518871327036053 -0.8312237749077072 -0.34595699436900595 -0.8305095652787562 L -0.3430965208860831 -0.6709974034039581 Z M -0.10129945369043136 -0.5665279370710978 L -0.10129945369043136 -0.35731263015581893 L -0.19586366691913937 -0.30572461273335394 C -0.20762332976132725 -0.31516569844824716 -0.22225859464933695 -0.3203002802857473 -0.23733915055028276 -0.32027571697257406 C -0.24705033577798685 -0.3202919369652817 -0.25664522115125066 -0.3181628859765844 -0.26543812050282733 -0.3140407139025496 L -0.33519774483372056 -0.36461720157163247 C -0.3348885001453532 -0.3668813581572936 -0.3347342928104733 -0.3691639960724269 -0.33473619983695957 -0.3714491730207019 C -0.33471995542319777 -0.3844796596964921 -0.3397888647221773 -0.3970022057717639 -0.34886445147436007 -0.4063524769973659 L -0.321274010140996 -0.5093322861251042 C -0.2857921376800924 -0.5096674726710595 -0.25452751864944756 -0.5327256724009208 -0.24372615945756415 -0.5665251733286016 Z M -0.38198790528386206 -1.2847002432596017 C -0.3884925296757187 -1.2897233538563713 -0.3958747532757676 -1.2934927207878677 -0.4037579049215322 -1.2958160155768175 L -0.3600465536114664 -1.6502383532097809 L -0.23916874808235733 -1.4403708030655458 C -0.24470366291783896 -1.4331389702656727 -0.24769859655005777 -1.4242833702036195 -0.24768936619622428 -1.4151765264758538 C -0.2476912212778004 -1.4116415555773874 -0.24724264650325478 -1.4081207543966445 -0.24635447857085846 -1.4046991786751133 L -0.38198790528386206 -1.2847002432596017 Z M -0.22606308116832452 -1.3787227629591758 C -0.2199616457688507 -1.3753869954994415 -0.21311789577500684 -1.373642789771843 -0.20616413520015997 -1.3736512954797895 C -0.19515146741115474 -1.373651295382198 -0.18458993060321827 -1.3780264389131944 -0.17680331686074346 -1.3858140892813406 C -0.16901670311826988 -1.3936017396494877 -0.16464296558141311 -1.40416385878444 -0.1646444316890867 -1.4151765264758538 C -0.1646387998874017 -1.4301464374239867 -0.17269579782744926 -1.4439591882508105 -0.1857290231878571 -1.4513235145755248 L -0.1817298877967517 -1.7827349321903012 C -0.1802491723267663 -1.7835384849610665 -0.17881017674978628 -1.7844166412362494 -0.17741844950364793 -1.7853660150460917 L -0.10129945369043136 -1.7273744062613718 L -0.10129945369043136 -1.078630075304291 L -0.35616073166268103 -1.2346682128621471 C -0.356473965780024 -1.2429639220363224 -0.35834337499306956 -1.2511268839309988 -0.3616716341988664 -1.2587321187711469 L -0.22606031742582833 -1.3787172354741848 Z M -0.21919794480930777 -1.4716204394630499 L -0.3464876329281572 -1.6926424543194385 C -0.33827401010552005 -1.7011584942298978 -0.33334377121879977 -1.7123095489353546 -0.3325721894629211 -1.724115953859084 L -0.2333372514166865 -1.7850150197491528 C -0.2279222313437177 -1.7814291791315653 -0.22186255418187661 -1.7789287175517727 -0.21549452986523276 -1.7776524097409319 L -0.2191924173243167 -1.4716149119780582 Z M -0.6543353820256348 -0.5732244851378838 C -0.6575707378016734 -0.5755993558547108 -0.6610135468458773 -0.5776778061293817 -0.6646220315941771 -0.5794346145254481 L -0.6672310045100033 -0.7564385026547615 C -0.6406992751940928 -0.7658210811737629 -0.622961019761286 -0.790906444715483 -0.6229586134733336 -0.8190483251495926 C -0.6229456216046634 -0.8277738636200893 -0.6246608154956037 -0.8364155853050064 -0.6280052072702591 -0.844474756108909 L -0.43240409588820244 -1.1639440424002976 L -0.38035729721147105 -0.9475236587990461 C -0.39557717555545546 -0.9349255681006275 -0.4043781553750727 -0.9161905481852146 -0.4043576370430736 -0.8964331150257856 C -0.40436527020847235 -0.8864228002149669 -0.4021070723567609 -0.8765405862689306 -0.3977522924786343 -0.8675271322645177 L -0.6543353820256373 -0.5732327763653704 Z M -0.4544808709428798 -1.2902885305856608 C -0.4723707368988041 -1.280444203066232 -0.48474160437758934 -1.2629217798493089 -0.48802994109670544 -1.2427687421166873 L -0.7861520803522433 -1.2049552172921847 L -0.6129842668067922 -1.4346747297821585 L -0.6129842668067922 -1.5462553055561419 C -0.585621248499842 -1.5551447819437314 -0.5670933422027367 -1.5806415731457941 -0.5670895589252185 -1.6094123490650984 C -0.5670922237392404 -1.6125636313780256 -0.567314784940337 -1.6157108868690369 -0.5677556208666541 -1.618831183490037 L -0.410399178138405 -1.685589383470723 C -0.4089947862963046 -1.6846557429058775 -0.4075437871742127 -1.6837941833508654 -0.40605181119286127 -1.6830080479798522 L -0.4544808709428798 -1.2902802393581743 Z M -0.6638094913004777 -0.880328787504051 C -0.6718991140357807 -0.8837062350469735 -0.680580115222416 -0.8854396167774217 -0.6893464719596207 -0.8854278924083929 C -0.6929030352786907 -0.8854273408352714 -0.6964538345641805 -0.8851417611946634 -0.6999647706276321 -0.8845738959772593 L -0.7988238396944692 -1.134477019912442 C -0.793757005566216 -1.1404631349415808 -0.7897922551896376 -1.147300621607065 -0.7871138627407027 -1.154671686327633 L -0.4768754763845505 -1.1940135607521898 C -0.4759744963309928 -1.192728420491746 -0.4750348238824951 -1.191484736368736 -0.474048167811574 -1.19026316218569 Z" fill="#1192dc" transform="matrix(1,0,0,1,0,0)" fill-rule="evenodd"></path></g><g clip-path="url(#SvgjsClipPath10067b6eb2e0-dc61-4a6b-9ac8-85821ad44f1f)"><path d=" M 0.05153550631504966 -1.7520131706094528 L 0.15562910366851246 -1.8313325802325504 C 0.1579322549669393 -1.8572349566080764 0.1796316915059284 -1.8770923275715214 0.20563626038350624 -1.877094628474336 C 0.2322896287567353 -1.8770965031760338 0.2542964530010592 -1.8562655605249136 0.25575673054082015 -1.8296522247952391 L 0.354543942302771 -1.7690378243822154 C 0.3628411632430055 -1.774668229867277 0.3726405655320888 -1.7776718005964092 0.38266778593777606 -1.7776579372259236 C 0.4093421652546507 -1.777651334914007 0.43135631659629525 -1.7567902017537798 0.4327965473225759 -1.7301547312119232 L 0.5931295407185602 -1.6621307371682539 C 0.6047014178468291 -1.6710183389077138 0.6188891781595014 -1.6758266291835426 0.6334801811540032 -1.675805735036376 C 0.6701476034308698 -1.6757996300314821 0.6998683289720256 -1.6460714804956047 0.699865275897793 -1.6094040578376116 C 0.699870014097564 -1.5840863226752513 0.685471434055855 -1.5609709788542763 0.6627454504396975 -1.5498122421479588 L 0.6627454504396975 -1.451323514575523 L 0.8233023069778074 -1.2383439903812663 C 0.8315835393830779 -1.241908303175736 0.8405062225098685 -1.2437413704693079 0.8495219320333591 -1.243730524505148 C 0.8671293115433296 -1.2437312575503634 0.8840157490352181 -1.2367370779431515 0.8964660464964338 -1.2242867804819362 C 0.9089163439576495 -1.2118364830207211 0.9159105235648615 -1.1949500455288324 0.9159097905196463 -1.1773426660188617 C 0.9159112566346792 -1.1597348076733835 0.90891740065094 -1.1428476601276956 0.8964670237283352 -1.1303967648929294 C 0.8840166468057307 -1.1179458696581632 0.8671297904245081 -1.1109513106791353 0.849521932033307 -1.1109520437900797 C 0.8473827953417823 -1.1109520437900793 0.8452491861351954 -1.1110598297474068 0.8431653242935293 -1.1112588192070887 L 0.7430100599962663 -0.8581000066121145 C 0.7512936109350352 -0.8467590187371976 0.7557468657641209 -0.8330730049287627 0.7557232754759258 -0.8190289789521237 C 0.7557239405593545 -0.7930808797994611 0.7406111499178283 -0.7695092443388041 0.7170308805378967 -0.7586798978187062 L 0.7144440175619684 -0.5827013581552216 C 0.7416217685420508 -0.5736989518111666 0.7599713707336757 -0.5482930955292189 0.7599739114341253 -0.519663155573576 C 0.7599708594235053 -0.48299897090077426 0.7302502374616875 -0.4532771116623844 0.6935860529477744 -0.45327253334479356 C 0.6756411067809931 -0.45324894414218764 0.6584563199798807 -0.4605156710893721 0.6459722972340152 -0.4734063974250817 L 0.4350324150014955 -0.3679309288238306 C 0.43318924321753305 -0.3416250025774663 0.411312765666332 -0.3212259476991106 0.38494234601163435 -0.3212236806485571 C 0.37827286959979456 -0.321212951874458 0.3716686789093384 -0.32253698498243333 0.36551876375271175 -0.3251177938248271 L 0.299490191790849 -0.2772359550889325 C 0.3023016523819273 -0.26976656355959006 0.3037361833471064 -0.26184948829158183 0.30372424529407516 -0.253868512288818 C 0.3037257717490369 -0.21720611606907236 0.27400707415961323 -0.18748370642653422 0.23734467803522574 -0.18748065380253087 C 0.2197375526341565 -0.18747992069159602 0.20285139922165363 -0.1944741884914596 0.1904015406013182 -0.20692456542397863 C 0.1779516819809801 -0.2193749423564979 0.17095811717643183 -0.23626138693347665 0.1709595832914843 -0.2538685122888178 C 0.17095651265160972 -0.25669235676686486 0.17113467960708473 -0.2595134874193852 0.17149298559313042 -0.2623145093552952 L 0.05152997883005861 -0.3277516404231131 L 0.05152997883005861 -1.7520131706094528 Z M 0.3186069986327642 -0.8329084937649185 C 0.2906695958369252 -0.8414348280905448 0.2715816927173613 -0.8672125269558397 0.2715763925855095 -0.8964220600558038 C 0.2715822644553716 -0.9312833566814926 0.29854817791705646 -0.9602033393355005 0.33332392742169925 -0.9626440939923545 L 0.38496169220910637 -1.1773426660188617 C 0.3807214385066806 -1.1802506095641512 0.3768318659684582 -1.1836393787712733 0.373370556182651 -1.1874413810977051 L 0.10129945369043414 -1.0208650934042085 L 0.10129945369043414 -0.6107809819102976 L 0.2421314800376182 -0.6107809819102976 C 0.25049982699286666 -0.6454124039181113 0.2802111270231933 -0.6707201704266137 0.3157327064373632 -0.6734737166799962 L 0.3186069986327642 -0.8329112575074136 Z M 0.34309652088608456 -0.6709974034039581 C 0.37914756439615793 -0.6614384954698795 0.4042514213975794 -0.6288144853633735 0.4042553785707357 -0.5915176967161166 C 0.40427506278865866 -0.5625019672891685 0.38897947060372906 -0.5356301397220782 0.36402081532010233 -0.5208322186492025 L 0.3906992216299241 -0.4213181426109174 C 0.3988620472174149 -0.4203873271519083 0.40666910833742564 -0.4174568313253675 0.41342823991356115 -0.4127864695270671 L 0.6272009582040483 -0.5196742105435583 L 0.6272009582040483 -0.5196742105435583 C 0.6271994311685736 -0.523498372362089 0.6275286216827247 -0.5273155028183016 0.6281848505324759 -0.53108293956532 L 0.36321103876890315 -0.8350034105765667 C 0.357685221709785 -0.8327330456906268 0.3518774276543115 -0.831221364382126 0.3459459393990252 -0.8305095652787562 L 0.3430965208860859 -0.6709974034039581 Z M 0.1012994536904328 -0.5665279370710978 L 0.1012994536904328 -0.35731263015581893 L 0.19587748563161766 -0.3057273764758499 C 0.2076354231635429 -0.3151696430858968 0.22227025787139776 -0.3203044161591251 0.2373502055202663 -0.32027848071506915 C 0.24706237241937012 -0.3202955633266966 0.2566583436664156 -0.318166480799815 0.26545193921530563 -0.31404347764504514 L 0.3352060360612079 -0.3646199653141282 C 0.33490231690208194 -0.3668845883733214 0.33475089220688115 -0.3691670386570607 0.3347527822919316 -0.37145193676319765 C 0.3347357367084305 -0.3844780028218362 0.33980043609697197 -0.39699697198387707 0.3488699789593499 -0.4063469495123717 L 0.32127124639850235 -0.5093267586401131 C 0.2857916108663552 -0.5096592804679678 0.25452961228311244 -0.5327196568378849 0.2437372144275476 -0.5665196458436106 Z M 0.381985141541366 -1.2847002432596017 C 0.388490525815433 -1.2897221546375806 0.3958725153248752 -1.2934914020423003 0.4037551411790361 -1.2958160155768175 L 0.36004378986897034 -1.6502383532097809 L 0.23916874808235744 -1.4403708030655458 C 0.24470287340229735 -1.4331382019724783 0.2476994445986822 -1.4242835040709405 0.24769489368121667 -1.4151765264758538 C 0.2476930996563631 -1.4116416120250364 0.24724364010141575 -1.4081211550564343 0.24635724231335332 -1.4046991786751062 L 0.3819851415413673 -1.2847002432596017 Z M 0.2260658449108195 -1.3787227629591758 C 0.21996454129754128 -1.375386660647603 0.21312070407838113 -1.3736424326896643 0.20616689894265616 -1.3736512954797895 C 0.1832372791673078 -1.3736558741795952 0.1646524335998789 -1.392246906446612 0.16465548665907015 -1.4151765264758538 C 0.16464989259444596 -1.4301449691654264 0.1727043027073505 -1.4439569043780394 0.18573455067285471 -1.4513235145755268 L 0.1817326515392479 -1.7827349321903012 C 0.1802512855616183 -1.7835640549389744 0.17880308449393612 -1.784418051370108 0.1774212132461468 -1.7853660150460917 L 0.10130774491792005 -1.7273744062613718 L 0.10130774491792005 -1.078630075304291 L 0.35617731411765696 -1.2346737403471384 C 0.3564847362210499 -1.2429696287804373 0.35835243838197406 -1.2511333249225873 0.3616826891688487 -1.2587376462561393 L 0.22607413613830807 -1.3787227629591758 Z M 0.21920070855180263 -1.4716204394630499 L 0.3464959241556458 -1.6926479818044302 C 0.33828068293864755 -1.701163479936143 0.33334851394902687 -1.7123144706952877 0.3325749532054161 -1.7241214813440757 L 0.2333372514166865 -1.7850205472341445 C 0.22792498977870213 -1.781433307465737 0.2218668341949901 -1.7789326990872107 0.21550005735022393 -1.7776579372259236 L 0.21920070855180263 -1.4716204394630499 Z M 0.6543353820256361 -0.5732300126228755 C 0.6575721537581267 -0.575601297524337 0.6610137152339663 -0.5776795530030283 0.6646192678516836 -0.5794401420104403 L 0.6672282407675085 -0.7564440301397528 C 0.6407002640196497 -0.7658305502873057 0.6229654380275023 -0.7909141956657233 0.6229613772158311 -0.8190538526345841 C 0.6229470701937292 -0.8277795193206188 0.6246623148078203 -0.8364214965657628 0.628007971012758 -0.8444802835939067 L 0.4324096233731922 -1.1639495698852893 L 0.38035729721147105 -0.9475291862840378 C 0.3955789251632136 -0.9349319195000833 0.4043819317682875 -0.9161968999166841 0.4043631645280661 -0.896438642510777 C 0.40437099023657863 -0.8864273731119254 0.4021098102669176 -0.876544514230738 0.3977495287361472 -0.8675326597495254 L 0.6543353820256375 -0.5732383038503619 Z M 0.4544808709428798 -1.2902940580706521 C 0.47237073689880416 -1.2804497305512237 0.4847416043775894 -1.2629273073343006 0.4880299410967055 -1.242774269601679 L 0.7861548440947383 -1.2049607447771762 L 0.6129842668067922 -1.4346802572671502 L 0.6129842668067922 -1.5462608330411336 C 0.5856196181787889 -1.5551486007640665 0.5670900976790165 -1.5806460778797882 0.5670867951827236 -1.60941787655009 C 0.5670876195422483 -1.6125693220058273 0.5673111179645278 -1.6157167708617481 0.567755620866649 -1.6188367109749926 L 0.4104019418809026 -1.6855949109557147 C 0.40899243320815915 -1.684664450982203 0.40754331089297713 -1.6838040058185797 0.4060545749353588 -1.6830135754648445 L 0.45448087094288114 -1.290285766843166 Z M 0.6638067275579829 -0.880328787504051 C 0.6718966746446442 -0.8837051724552354 0.6805774600774224 -0.8854385111049623 0.6893437082171259 -0.8854278924083929 C 0.6929020827481591 -0.8854267845033122 0.6964546742766908 -0.8851412093778396 0.6999675343701297 -0.8845738959772593 L 0.7988376584069476 -1.134477019912442 C 0.7937607893470435 -1.1404589413918536 0.789789929178135 -1.1472972810699615 0.7871110989982091 -1.154671686327633 L 0.47687824012704794 -1.1940135607521898 C 0.47597449633099287 -1.192728420491746 0.4750375876249926 -1.191484736368736 0.4740426403265843 -1.19026316218569 Z" fill="#facf0e" transform="matrix(1,0,0,1,0,0)" fill-rule="evenodd"></path></g></g></g></g><defs><clipPath id="SvgjsClipPath1009"><path d=" M -0.9159125542621411 -1.8770891009893442 h 1.8318251085242823 v 1.6895891009893442 h -1.8318251085242823 Z"></path></clipPath><clipPath id="SvgjsClipPath10067b6eb2e0-dc61-4a6b-9ac8-85821ad44f1f"><path d=" M -0.9159125542621411 -1.8770891009893442 L 0.9159125542621411 -1.8770891009893442 L 0.9159125542621411 -0.1875 L -0.9159125542621411 -0.1875 Z"></path></clipPath></defs></svg>