<svg xmlns="http://www.w3.org/2000/svg" version="1.1" xmlns:xlink="http://www.w3.org/1999/xlink" xmlns:svgjs="http://svgjs.dev/svgjs" viewBox="0 0 6.123435206442805 6.1750559446385775"><g transform="matrix(1,0,0,1,0.5124317145495274,3.3559992300890507)"><rect width="6.1750559446385775" height="6.1750559446385775" x="-0.5382420836474138" y="-3.3559992300890507" fill="#8c1627"></rect><g><path d=" M 0.582 0.05999999999999983 Q 0.726 0.05999999999999983 0.7965 0.12749999999999984 Q 0.867 0.19499999999999984 0.867 0.32699999999999985 Q 0.867 0.39749999999999985 0.8325 0.4507499999999999 Q 0.798 0.5039999999999999 0.7305 0.5332499999999999 Q 0.663 0.5624999999999999 0.5640000000000001 0.5624999999999999 L 0.5700000000000001 0.4949999999999999 Q 0.6165 0.4949999999999999 0.6765 0.5077499999999998 Q 0.7365 0.5204999999999999 0.7927500000000001 0.5527499999999999 Q 0.849 0.5849999999999999 0.88575 0.6427499999999999 Q 0.9225 0.7004999999999999 0.9225 0.7904999999999999 Q 0.9225 0.8894999999999998 0.89025 0.9524999999999999 Q 0.858 1.0154999999999998 0.8055 1.0499999999999998 Q 0.753 1.0844999999999998 0.6930000000000001 1.0972499999999998 Q 0.633 1.1099999999999999 0.5775 1.1099999999999999 L 0.20400000000000001 1.1099999999999999 Q 0.165 1.1099999999999999 0.13875 1.0837499999999998 Q 0.1125 1.0574999999999999 0.1125 1.0185 L 0.1125 0.15149999999999986 Q 0.1125 0.11249999999999982 0.13875 0.08624999999999994 Q 0.165 0.05999999999999983 0.20400000000000001 0.05999999999999983 L 0.582 0.05999999999999983 M 0.555 0.23699999999999988 L 0.28800000000000003 0.23699999999999988 L 0.3075 0.21299999999999986 L 0.3075 0.4844999999999998 L 0.2895 0.47099999999999986 L 0.5595 0.47099999999999986 Q 0.603 0.47099999999999986 0.6375000000000001 0.4424999999999999 Q 0.672 0.4139999999999998 0.672 0.3599999999999999 Q 0.672 0.2954999999999999 0.63975 0.2662499999999999 Q 0.6075 0.23699999999999988 0.555 0.23699999999999988 M 0.5670000000000001 0.6479999999999999 L 0.294 0.6479999999999999 L 0.3075 0.6359999999999999 L 0.3075 0.9524999999999999 L 0.2925 0.9374999999999999 L 0.5775 0.9374999999999999 Q 0.6465 0.9374999999999999 0.687 0.9007499999999999 Q 0.7275 0.8639999999999999 0.7275 0.7904999999999999 Q 0.7275 0.7229999999999999 0.7005 0.6929999999999998 Q 0.6735 0.6629999999999998 0.636 0.6554999999999999 Q 0.5985 0.6479999999999999 0.5670000000000001 0.6479999999999999 M 1.270557861328125 1.0185 Q 1.270557861328125 1.0574999999999999 1.2443078613281249 1.0837499999999998 Q 1.218057861328125 1.1099999999999999 1.179057861328125 1.1099999999999999 Q 1.141557861328125 1.1099999999999999 1.116057861328125 1.0837499999999998 Q 1.090557861328125 1.0574999999999999 1.090557861328125 1.0185 L 1.090557861328125 0.09149999999999991 Q 1.090557861328125 0.05249999999999977 1.116807861328125 0.026249999999999885 Q 1.143057861328125 -2.220446049250313e-16 1.182057861328125 -2.220446049250313e-16 Q 1.2210578613281249 -2.220446049250313e-16 1.245807861328125 0.026249999999999885 Q 1.270557861328125 0.05249999999999977 1.270557861328125 0.09149999999999991 L 1.270557861328125 1.0185 M 2.236572509765625 0.7094999999999998 Q 2.236572509765625 0.8324999999999998 2.1818225097656248 0.9262499999999999 Q 2.127072509765625 1.0199999999999998 2.034822509765625 1.0724999999999998 Q 1.942572509765625 1.1249999999999998 1.8285725097656251 1.1249999999999998 Q 1.714572509765625 1.1249999999999998 1.622322509765625 1.0724999999999998 Q 1.530072509765625 1.0199999999999998 1.475322509765625 0.9262499999999999 Q 1.420572509765625 0.8324999999999998 1.420572509765625 0.7094999999999998 Q 1.420572509765625 0.5864999999999999 1.475322509765625 0.4927499999999999 Q 1.530072509765625 0.3989999999999999 1.622322509765625 0.3457499999999999 Q 1.714572509765625 0.29249999999999987 1.8285725097656251 0.29249999999999987 Q 1.942572509765625 0.29249999999999987 2.034822509765625 0.3457499999999999 Q 2.127072509765625 0.3989999999999999 2.1818225097656248 0.4927499999999999 Q 2.236572509765625 0.5864999999999999 2.236572509765625 0.7094999999999998 M 2.056572509765625 0.7094999999999998 Q 2.056572509765625 0.6329999999999998 2.025822509765625 0.5767499999999999 Q 1.995072509765625 0.5204999999999999 1.943322509765625 0.4889999999999999 Q 1.8915725097656249 0.4574999999999999 1.8285725097656251 0.4574999999999999 Q 1.765572509765625 0.4574999999999999 1.713822509765625 0.4889999999999999 Q 1.662072509765625 0.5204999999999999 1.631322509765625 0.5767499999999999 Q 1.600572509765625 0.6329999999999998 1.600572509765625 0.7094999999999998 Q 1.600572509765625 0.7844999999999999 1.631322509765625 0.8407499999999999 Q 1.662072509765625 0.8969999999999999 1.713822509765625 0.9284999999999999 Q 1.765572509765625 0.9599999999999999 1.8285725097656251 0.9599999999999999 Q 1.8915725097656249 0.9599999999999999 1.943322509765625 0.9284999999999999 Q 1.995072509765625 0.8969999999999999 2.025822509765625 0.8407499999999999 Q 2.056572509765625 0.7844999999999999 2.056572509765625 0.7094999999999998 M 2.712093017578125 0.29249999999999987 Q 2.7750930175781248 0.29249999999999987 2.827593017578125 0.31199999999999983 Q 2.880093017578125 0.3314999999999999 2.918343017578125 0.3614999999999998 Q 2.956593017578125 0.39149999999999985 2.978343017578125 0.4222499999999999 Q 3.000093017578125 0.45299999999999985 3.000093017578125 0.47399999999999987 L 2.961093017578125 0.4934999999999998 L 2.961093017578125 0.3839999999999999 Q 2.961093017578125 0.34499999999999986 2.986593017578125 0.31874999999999987 Q 3.012093017578125 0.29249999999999987 3.051093017578125 0.29249999999999987 Q 3.090093017578125 0.29249999999999987 3.1155930175781252 0.31799999999999984 Q 3.141093017578125 0.3434999999999998 3.141093017578125 0.3839999999999999 L 3.141093017578125 1.0514999999999999 Q 3.141093017578125 1.182 3.084843017578125 1.2607499999999998 Q 3.028593017578125 1.3395 2.937093017578125 1.37475 Q 2.8455930175781248 1.41 2.7405930175781252 1.41 Q 2.710593017578125 1.41 2.662593017578125 1.4024999999999999 Q 2.614593017578125 1.395 2.571093017578125 1.3844999999999998 Q 2.527593017578125 1.3739999999999999 2.505093017578125 1.3649999999999998 Q 2.460093017578125 1.3455 2.442843017578125 1.31625 Q 2.425593017578125 1.287 2.436093017578125 1.254 Q 2.449593017578125 1.2105 2.479593017578125 1.19475 Q 2.509593017578125 1.1789999999999998 2.542593017578125 1.1909999999999998 Q 2.557593017578125 1.1954999999999998 2.592093017578125 1.2089999999999999 Q 2.626593017578125 1.2225 2.667843017578125 1.23375 Q 2.709093017578125 1.2449999999999999 2.7405930175781252 1.2449999999999999 Q 2.853093017578125 1.2449999999999999 2.907093017578125 1.2 Q 2.961093017578125 1.1549999999999998 2.961093017578125 1.0755 L 2.961093017578125 0.9449999999999998 L 2.979093017578125 0.9584999999999999 Q 2.979093017578125 0.9779999999999999 2.958843017578125 1.00575 Q 2.9385930175781247 1.0334999999999999 2.903343017578125 1.0604999999999998 Q 2.8680930175781247 1.0875 2.820093017578125 1.10625 Q 2.772093017578125 1.1249999999999998 2.718093017578125 1.1249999999999998 Q 2.611593017578125 1.1249999999999998 2.526093017578125 1.07175 Q 2.440593017578125 1.0185 2.391093017578125 0.9247499999999998 Q 2.341593017578125 0.8309999999999998 2.341593017578125 0.7094999999999998 Q 2.341593017578125 0.5864999999999999 2.391093017578125 0.4927499999999999 Q 2.440593017578125 0.3989999999999999 2.524593017578125 0.3457499999999999 Q 2.608593017578125 0.29249999999999987 2.712093017578125 0.29249999999999987 M 2.7405930175781252 0.4574999999999999 Q 2.673093017578125 0.4574999999999999 2.622093017578125 0.4904999999999998 Q 2.571093017578125 0.5234999999999999 2.542593017578125 0.5804999999999999 Q 2.514093017578125 0.6374999999999998 2.514093017578125 0.7094999999999998 Q 2.514093017578125 0.7799999999999998 2.542593017578125 0.8369999999999999 Q 2.571093017578125 0.8939999999999999 2.622093017578125 0.9269999999999998 Q 2.673093017578125 0.9599999999999999 2.7405930175781252 0.9599999999999999 Q 2.809593017578125 0.9599999999999999 2.860593017578125 0.9269999999999998 Q 2.911593017578125 0.8939999999999999 2.940093017578125 0.8369999999999999 Q 2.968593017578125 0.7799999999999998 2.968593017578125 0.7094999999999998 Q 2.968593017578125 0.6374999999999998 2.940093017578125 0.5804999999999999 Q 2.911593017578125 0.5234999999999999 2.860593017578125 0.4904999999999998 Q 2.809593017578125 0.4574999999999999 2.7405930175781252 0.4574999999999999 M 3.50558642578125 1.0185 Q 3.50558642578125 1.0574999999999999 3.48008642578125 1.0837499999999998 Q 3.45458642578125 1.1099999999999999 3.41558642578125 1.1099999999999999 Q 3.37658642578125 1.1099999999999999 3.35108642578125 1.0837499999999998 Q 3.32558642578125 1.0574999999999999 3.32558642578125 1.0185 L 3.32558642578125 0.3989999999999999 Q 3.32558642578125 0.3599999999999999 3.35108642578125 0.3337499999999999 Q 3.37658642578125 0.3074999999999999 3.41558642578125 0.3074999999999999 Q 3.45458642578125 0.3074999999999999 3.48008642578125 0.3337499999999999 Q 3.50558642578125 0.3599999999999999 3.50558642578125 0.3989999999999999 L 3.50558642578125 1.0185 M 3.41408642578125 0.20999999999999985 Q 3.36308642578125 0.20999999999999985 3.34208642578125 0.1934999999999999 Q 3.32108642578125 0.17699999999999982 3.32108642578125 0.1349999999999999 L 3.32108642578125 0.10649999999999982 Q 3.32108642578125 0.06299999999999994 3.34433642578125 0.04724999999999979 Q 3.36758642578125 0.03149999999999986 3.41558642578125 0.03149999999999986 Q 3.46808642578125 0.03149999999999986 3.48908642578125 0.04799999999999982 Q 3.51008642578125 0.06449999999999978 3.51008642578125 0.10649999999999982 L 3.51008642578125 0.1349999999999999 Q 3.51008642578125 0.17849999999999988 3.48758642578125 0.1942499999999998 Q 3.46508642578125 0.20999999999999985 3.41408642578125 0.20999999999999985 M 4.102620849609375 -2.220446049250313e-16 Q 4.135620849609375 -2.220446049250313e-16 4.1671208496093755 0.008999999999999897 Q 4.198620849609375 0.017999999999999794 4.219620849609375 0.038249999999999895 Q 4.240620849609375 0.058499999999999774 4.240620849609375 0.09149999999999991 Q 4.240620849609375 0.1289999999999999 4.218870849609375 0.15074999999999983 Q 4.197120849609375 0.17249999999999988 4.1686208496093755 0.17249999999999988 Q 4.155120849609375 0.17249999999999988 4.128120849609375 0.16574999999999984 Q 4.101120849609375 0.1589999999999998 4.075620849609375 0.1589999999999998 Q 4.038120849609375 0.1589999999999998 4.017870849609375 0.17549999999999988 Q 3.9976208496093752 0.19199999999999984 3.990120849609375 0.21374999999999988 Q 3.982620849609375 0.23549999999999982 3.982620849609375 0.2519999999999999 L 3.982620849609375 1.0185 Q 3.982620849609375 1.0574999999999999 3.957120849609375 1.0837499999999998 Q 3.931620849609375 1.1099999999999999 3.892620849609375 1.1099999999999999 Q 3.853620849609375 1.1099999999999999 3.828120849609375 1.0837499999999998 Q 3.802620849609375 1.0574999999999999 3.802620849609375 1.0185 L 3.802620849609375 0.25349999999999984 Q 3.802620849609375 0.1469999999999999 3.877620849609375 0.0734999999999999 Q 3.952620849609375 -2.220446049250313e-16 4.102620849609375 -2.220446049250313e-16 M 4.119120849609375 0.3224999999999999 Q 4.155120849609375 0.3224999999999999 4.179120849609375 0.3457499999999999 Q 4.203120849609375 0.3689999999999999 4.203120849609375 0.4049999999999999 Q 4.203120849609375 0.44099999999999984 4.179120849609375 0.46424999999999983 Q 4.155120849609375 0.4874999999999998 4.119120849609375 0.4874999999999998 L 3.721620849609375 0.4874999999999998 Q 3.685620849609375 0.4874999999999998 3.661620849609375 0.46424999999999983 Q 3.637620849609375 0.44099999999999984 3.637620849609375 0.4049999999999999 Q 3.637620849609375 0.3689999999999999 3.661620849609375 0.3457499999999999 Q 3.685620849609375 0.3224999999999999 3.721620849609375 0.3224999999999999 L 4.119120849609375 0.3224999999999999 M 4.911109130859375 0.3074999999999999 Q 4.950109130859375 0.3074999999999999 4.975609130859375 0.3337499999999999 Q 5.001109130859375 0.3599999999999999 5.001109130859375 0.3989999999999999 L 5.001109130859375 1.0365 Q 5.001109130859375 1.1744999999999999 4.949359130859375 1.2562499999999999 Q 4.897609130859375 1.3379999999999999 4.810609130859375 1.3739999999999999 Q 4.723609130859375 1.41 4.615609130859375 1.41 Q 4.567609130859375 1.41 4.513609130859375 1.4024999999999999 Q 4.459609130859375 1.395 4.425109130859375 1.38 Q 4.380109130859375 1.3604999999999998 4.362859130859375 1.3312499999999998 Q 4.345609130859375 1.3019999999999998 4.356109130859375 1.269 Q 4.369609130859375 1.2254999999999998 4.399609130859375 1.2097499999999999 Q 4.429609130859375 1.194 4.462609130859375 1.206 Q 4.486609130859375 1.2134999999999998 4.525609130859375 1.22925 Q 4.564609130859375 1.2449999999999999 4.615609130859375 1.2449999999999999 Q 4.684609130859375 1.2449999999999999 4.730359130859375 1.2262499999999998 Q 4.776109130859375 1.2074999999999998 4.799359130859375 1.16325 Q 4.822609130859375 1.1189999999999998 4.822609130859375 1.0425 L 4.822609130859375 0.9419999999999998 L 4.854109130859375 0.9779999999999999 Q 4.828609130859375 1.0274999999999999 4.790359130859375 1.05975 Q 4.752109130859375 1.0919999999999999 4.699609130859375 1.1084999999999998 Q 4.647109130859375 1.1249999999999998 4.579609130859375 1.1249999999999998 Q 4.500109130859375 1.1249999999999998 4.440859130859375 1.08825 Q 4.381609130859375 1.0514999999999999 4.348609130859375 0.9862499999999998 Q 4.315609130859375 0.9209999999999998 4.315609130859375 0.8369999999999999 L 4.315609130859375 0.3989999999999999 Q 4.315609130859375 0.3599999999999999 4.341109130859375 0.3337499999999999 Q 4.366609130859375 0.3074999999999999 4.405609130859375 0.3074999999999999 Q 4.444609130859375 0.3074999999999999 4.470109130859375 0.3337499999999999 Q 4.495609130859375 0.3599999999999999 4.495609130859375 0.3989999999999999 L 4.495609130859375 0.7829999999999999 Q 4.495609130859375 0.8804999999999998 4.538359130859375 0.9202499999999999 Q 4.5811091308593745 0.9599999999999999 4.657609130859375 0.9599999999999999 Q 4.710109130859375 0.9599999999999999 4.7461091308593755 0.9397499999999999 Q 4.782109130859375 0.9194999999999999 4.801609130859375 0.8797499999999998 Q 4.821109130859375 0.8399999999999999 4.821109130859375 0.7829999999999999 L 4.821109130859375 0.3989999999999999 Q 4.821109130859375 0.3599999999999999 4.846609130859375 0.3337499999999999 Q 4.872109130859375 0.3074999999999999 4.911109130859375 0.3074999999999999" fill="#ffffff" fill-rule="nonzero"></path></g><g><path d=" M 0.219 2.3066249999999995 Q 0.1635 2.3066249999999995 0.1215 2.2901249999999997 Q 0.0795 2.2736249999999996 0.0405 2.2376249999999995 Q 0.035250000000000004 2.2323749999999998 0.031875 2.2259999999999995 Q 0.0285 2.2196249999999997 0.0285 2.2121249999999995 Q 0.0285 2.2001249999999994 0.037125 2.1907499999999995 Q 0.04575 2.1813749999999996 0.0585 2.1813749999999996 Q 0.069 2.1813749999999996 0.07725 2.1896249999999995 Q 0.1065 2.2181249999999997 0.140625 2.233125 Q 0.17475000000000002 2.2481249999999995 0.2175 2.2481249999999995 Q 0.2505 2.2481249999999995 0.277125 2.2376249999999995 Q 0.30375 2.2271249999999996 0.3195 2.2083749999999998 Q 0.33525 2.1896249999999995 0.33525 2.1648749999999994 Q 0.3345 2.1348749999999996 0.317625 2.115375 Q 0.30075 2.0958749999999995 0.271125 2.0827499999999994 Q 0.2415 2.069625 0.2025 2.0606249999999995 Q 0.168 2.0523749999999996 0.139125 2.0403749999999996 Q 0.11025 2.0283749999999996 0.08925 2.01075 Q 0.06825 1.9931249999999996 0.056625 1.9679999999999995 Q 0.045 1.9428749999999997 0.045 1.9091249999999995 Q 0.045 1.8663749999999997 0.0675 1.8341249999999996 Q 0.09 1.8018749999999997 0.12975 1.7842499999999997 Q 0.1695 1.7666249999999997 0.22125 1.7666249999999997 Q 0.267 1.7666249999999997 0.307875 1.7816249999999996 Q 0.34875 1.7966249999999997 0.3735 1.8228749999999996 Q 0.3885 1.8371249999999997 0.3885 1.8506249999999995 Q 0.3885 1.8618749999999995 0.379125 1.8712499999999996 Q 0.36975 1.8806249999999998 0.35775 1.8806249999999998 Q 0.34950000000000003 1.8806249999999998 0.34275 1.8746249999999995 Q 0.33 1.8603749999999997 0.3105 1.8491249999999997 Q 0.291 1.8378749999999997 0.26775 1.8311249999999997 Q 0.2445 1.8243749999999996 0.22125 1.8243749999999996 Q 0.18675 1.8243749999999996 0.1605 1.8344999999999996 Q 0.13425 1.8446249999999997 0.11962500000000001 1.8629999999999995 Q 0.105 1.8813749999999996 0.105 1.9068749999999997 Q 0.105 1.9353749999999996 0.1215 1.9537499999999997 Q 0.138 1.9721249999999997 0.16575 1.9837499999999997 Q 0.1935 1.9953749999999997 0.22725 2.0043749999999996 Q 0.264 2.0133749999999995 0.295125 2.0249999999999995 Q 0.32625 2.0366249999999995 0.34875 2.0538749999999997 Q 0.37125 2.0711249999999994 0.383625 2.0977499999999996 Q 0.396 2.1243749999999997 0.396 2.163375 Q 0.396 2.2046249999999996 0.37275 2.2368749999999995 Q 0.34950000000000003 2.269125 0.309375 2.2874999999999996 Q 0.26925 2.3058749999999995 0.219 2.3066249999999995 M 0.54373095703125 2.268375 Q 0.54373095703125 2.281125 0.53510595703125 2.2901249999999997 Q 0.52648095703125 2.2991249999999996 0.51373095703125 2.2991249999999996 Q 0.50023095703125 2.2991249999999996 0.49198095703125 2.2901249999999997 Q 0.48373095703125 2.281125 0.48373095703125 2.268375 L 0.48373095703125 1.9353749999999996 Q 0.48373095703125 1.9226249999999996 0.49235595703125 1.9139999999999997 Q 0.50098095703125 1.9053749999999996 0.51373095703125 1.9053749999999996 Q 0.52648095703125 1.9053749999999996 0.53510595703125 1.9139999999999997 Q 0.54373095703125 1.9226249999999996 0.54373095703125 1.9353749999999996 L 0.54373095703125 2.268375 M 0.51373095703125 1.8551249999999997 Q 0.49498095703125 1.8551249999999997 0.48598095703125 1.8476249999999996 Q 0.47698095703125 1.8401249999999996 0.47698095703125 1.8243749999999996 L 0.47698095703125 1.8138749999999997 Q 0.47698095703125 1.7981249999999998 0.48673095703125 1.7906249999999995 Q 0.49648095703125 1.7831249999999996 0.51448095703125 1.7831249999999996 Q 0.53248095703125 1.7831249999999996 0.54148095703125 1.7906249999999995 Q 0.55048095703125 1.7981249999999998 0.55048095703125 1.8138749999999997 L 0.55048095703125 1.8243749999999996 Q 0.55048095703125 1.8401249999999996 0.54110595703125 1.8476249999999996 Q 0.5317309570312501 1.8551249999999997 0.51373095703125 1.8551249999999997 M 0.8444871826171875 1.9016249999999997 Q 0.8954871826171875 1.9016249999999997 0.9247371826171875 1.9226249999999996 Q 0.9539871826171875 1.9436249999999997 0.9663621826171875 1.9788749999999997 Q 0.9787371826171876 2.0141249999999995 0.9787371826171876 2.057625 L 0.9787371826171876 2.268375 Q 0.9787371826171876 2.281125 0.9701121826171875 2.2901249999999997 Q 0.9614871826171876 2.2991249999999996 0.9487371826171875 2.2991249999999996 Q 0.9359871826171875 2.2991249999999996 0.9273621826171875 2.2901249999999997 Q 0.9187371826171875 2.281125 0.9187371826171875 2.268375 L 0.9187371826171875 2.059125 Q 0.9187371826171875 2.0306249999999997 0.9101121826171875 2.0077499999999997 Q 0.9014871826171875 1.9848749999999997 0.8816121826171874 1.9709999999999996 Q 0.8617371826171876 1.9571249999999996 0.8272371826171875 1.9571249999999996 Q 0.7957371826171875 1.9571249999999996 0.7694871826171875 1.9709999999999996 Q 0.7432371826171875 1.9848749999999997 0.7274871826171875 2.0077499999999997 Q 0.7117371826171875 2.0306249999999997 0.7117371826171875 2.059125 L 0.7117371826171875 2.268375 Q 0.7117371826171875 2.281125 0.7031121826171876 2.2901249999999997 Q 0.6944871826171874 2.2991249999999996 0.6817371826171875 2.2991249999999996 Q 0.6689871826171875 2.2991249999999996 0.6603621826171875 2.2901249999999997 Q 0.6517371826171875 2.281125 0.6517371826171875 2.268375 L 0.6517371826171875 1.9413749999999996 Q 0.6517371826171875 1.9286249999999996 0.6603621826171875 1.9199999999999997 Q 0.6689871826171875 1.9113749999999996 0.6817371826171875 1.9113749999999996 Q 0.6952371826171875 1.9113749999999996 0.7034871826171875 1.9199999999999997 Q 0.7117371826171875 1.9286249999999996 0.7117371826171875 1.9413749999999996 L 0.7117371826171875 1.9946249999999996 L 0.6967371826171875 2.011125 Q 0.7004871826171875 1.9916249999999995 0.7139871826171875 1.9717499999999997 Q 0.7274871826171875 1.9518749999999996 0.7477371826171875 1.9361249999999997 Q 0.7679871826171876 1.9203749999999995 0.7927371826171875 1.9109999999999996 Q 0.8174871826171874 1.9016249999999997 0.8444871826171875 1.9016249999999997 M 1.2584754638671876 1.9016249999999997 Q 1.2967254638671875 1.9016249999999997 1.3274754638671875 1.9098749999999995 Q 1.3582254638671876 1.9181249999999996 1.3762254638671876 1.9323749999999995 Q 1.3942254638671874 1.9466249999999996 1.3942254638671874 1.9646249999999996 Q 1.3942254638671874 1.9743749999999998 1.3878504638671876 1.9833749999999997 Q 1.3814754638671876 1.9923749999999996 1.3694754638671875 1.9923749999999996 Q 1.3597254638671874 1.9923749999999996 1.3533504638671876 1.9886249999999996 Q 1.3469754638671876 1.9848749999999997 1.3413504638671876 1.9788749999999997 Q 1.3357254638671874 1.9728749999999997 1.3259754638671875 1.9683749999999995 Q 1.3169754638671876 1.9631249999999996 1.2997254638671876 1.9601249999999997 Q 1.2824754638671876 1.9571249999999996 1.2644754638671876 1.9571249999999996 Q 1.2239754638671876 1.9571249999999996 1.1924754638671875 1.9766249999999996 Q 1.1609754638671874 1.9961249999999997 1.1433504638671874 2.0291249999999996 Q 1.1257254638671874 2.0621249999999995 1.1257254638671874 2.104125 Q 1.1257254638671874 2.1461249999999996 1.1429754638671874 2.1791249999999995 Q 1.1602254638671874 2.2121249999999995 1.1909754638671874 2.2316249999999997 Q 1.2217254638671875 2.2511249999999996 1.2622254638671875 2.2511249999999996 Q 1.2884754638671876 2.2511249999999996 1.3038504638671875 2.2466249999999994 Q 1.3192254638671876 2.2421249999999997 1.3304754638671876 2.2361249999999995 Q 1.3432254638671874 2.2286249999999996 1.3503504638671875 2.221125 Q 1.3574754638671875 2.2136249999999995 1.3702254638671876 2.2136249999999995 Q 1.3829754638671874 2.2136249999999995 1.3897254638671874 2.221875 Q 1.3964754638671875 2.2301249999999997 1.3964754638671875 2.2421249999999997 Q 1.3964754638671875 2.2556249999999998 1.3777254638671876 2.2706249999999994 Q 1.3589754638671874 2.2856249999999996 1.3271004638671875 2.2961249999999995 Q 1.2952254638671876 2.3066249999999995 1.2554754638671874 2.3066249999999995 Q 1.1984754638671875 2.3066249999999995 1.1557254638671874 2.28 Q 1.1129754638671876 2.2533749999999997 1.0893504638671876 2.2072499999999997 Q 1.0657254638671876 2.1611249999999997 1.0657254638671876 2.104125 Q 1.0657254638671876 2.0471249999999994 1.0901004638671874 2.0013749999999995 Q 1.1144754638671874 1.9556249999999995 1.1579754638671875 1.9286249999999996 Q 1.2014754638671876 1.9016249999999997 1.2584754638671876 1.9016249999999997 M 1.650708251953125 2.3066249999999995 Q 1.590708251953125 2.3066249999999995 1.545708251953125 2.281125 Q 1.500708251953125 2.2556249999999998 1.475958251953125 2.211 Q 1.451208251953125 2.1663749999999995 1.451208251953125 2.1078749999999995 Q 1.451208251953125 2.0426249999999997 1.477083251953125 1.9964999999999997 Q 1.502958251953125 1.9503749999999997 1.544208251953125 1.9259999999999997 Q 1.585458251953125 1.9016249999999997 1.631958251953125 1.9016249999999997 Q 1.667208251953125 1.9016249999999997 1.699083251953125 1.9143749999999997 Q 1.730958251953125 1.9271249999999998 1.7560832519531249 1.9514999999999996 Q 1.781208251953125 1.9758749999999996 1.796208251953125 2.01 Q 1.811208251953125 2.0441249999999997 1.811958251953125 2.0861249999999996 Q 1.811208251953125 2.0981249999999996 1.802208251953125 2.1063749999999994 Q 1.793208251953125 2.1146249999999998 1.781208251953125 2.1146249999999998 L 1.484958251953125 2.1146249999999998 L 1.471458251953125 2.0628749999999996 L 1.760208251953125 2.0628749999999996 L 1.748208251953125 2.0733749999999995 L 1.748208251953125 2.056875 Q 1.745958251953125 2.0261249999999995 1.728333251953125 2.0039999999999996 Q 1.710708251953125 1.9818749999999996 1.685208251953125 1.9698749999999996 Q 1.659708251953125 1.9578749999999996 1.631958251953125 1.9578749999999996 Q 1.609458251953125 1.9578749999999996 1.587333251953125 1.9657499999999997 Q 1.565208251953125 1.9736249999999997 1.547583251953125 1.9912499999999995 Q 1.529958251953125 2.0088749999999997 1.519458251953125 2.0366249999999995 Q 1.508958251953125 2.0643749999999996 1.508958251953125 2.1033749999999998 Q 1.508958251953125 2.1468749999999996 1.526583251953125 2.1798749999999996 Q 1.544208251953125 2.2128749999999995 1.575708251953125 2.2319999999999998 Q 1.607208251953125 2.2511249999999996 1.648458251953125 2.2511249999999996 Q 1.675458251953125 2.2511249999999996 1.694958251953125 2.244375 Q 1.714458251953125 2.2376249999999995 1.728333251953125 2.2274999999999996 Q 1.742208251953125 2.2173749999999997 1.751958251953125 2.2068749999999997 Q 1.761708251953125 2.2001249999999994 1.771458251953125 2.2001249999999994 Q 1.781958251953125 2.2001249999999994 1.789458251953125 2.2076249999999997 Q 1.796958251953125 2.2151249999999996 1.796958251953125 2.2256249999999995 Q 1.796958251953125 2.2383749999999996 1.784958251953125 2.2481249999999995 Q 1.7632082519531251 2.2713749999999995 1.7275832519531251 2.2889999999999997 Q 1.691958251953125 2.3066249999999995 1.650708251953125 2.3066249999999995 M 2.4082459716796873 2.2428749999999997 Q 2.4202459716796874 2.2428749999999997 2.4284959716796877 2.2511249999999996 Q 2.4367459716796875 2.2593749999999995 2.4367459716796875 2.2713749999999995 Q 2.4367459716796875 2.2833749999999995 2.4284959716796877 2.29125 Q 2.4202459716796874 2.2991249999999996 2.4082459716796873 2.2991249999999996 L 2.1359959716796877 2.2991249999999996 Q 2.1224959716796876 2.2991249999999996 2.1138709716796873 2.29125 Q 2.1052459716796874 2.2833749999999995 2.1052459716796874 2.2698749999999994 Q 2.1052459716796874 2.257875 2.1142459716796873 2.2481249999999995 L 2.2837459716796875 2.0628749999999996 Q 2.3204959716796876 2.0238749999999994 2.3399959716796874 1.9897499999999997 Q 2.3594959716796877 1.9556249999999995 2.3594959716796877 1.9233749999999996 Q 2.3594959716796877 1.8926249999999996 2.3463709716796877 1.8701249999999996 Q 2.3332459716796876 1.8476249999999996 2.3099959716796876 1.8352499999999996 Q 2.2867459716796876 1.8228749999999996 2.2552459716796873 1.8228749999999996 Q 2.2252459716796875 1.8228749999999996 2.1978709716796874 1.8386249999999995 Q 2.1704959716796877 1.8543749999999997 2.1547459716796875 1.8873749999999996 Q 2.1494959716796873 1.8956249999999997 2.1431209716796875 1.8989999999999996 Q 2.1367459716796877 1.9023749999999997 2.1299959716796875 1.9023749999999997 Q 2.1194959716796875 1.9023749999999997 2.1097459716796876 1.8944999999999996 Q 2.0999959716796877 1.8866249999999996 2.0999959716796877 1.8761249999999996 Q 2.0999959716796877 1.8678749999999997 2.1048709716796874 1.8603749999999997 Q 2.1097459716796876 1.8528749999999996 2.1164959716796874 1.8446249999999997 Q 2.1397459716796874 1.8071249999999996 2.1787459716796875 1.7868749999999998 Q 2.2177459716796877 1.7666249999999997 2.2589959716796875 1.7666249999999997 Q 2.3099959716796876 1.7666249999999997 2.3463709716796877 1.7861249999999997 Q 2.3827459716796877 1.8056249999999996 2.4018709716796875 1.8404999999999996 Q 2.4209959716796874 1.8753749999999996 2.4209959716796874 1.9196249999999997 Q 2.4209959716796874 1.9481249999999997 2.4108709716796874 1.9777499999999997 Q 2.4007459716796875 2.0073749999999997 2.3797459716796876 2.0388749999999995 Q 2.3587459716796877 2.0703749999999994 2.3264959716796874 2.104875 L 2.1952459716796877 2.2503749999999996 L 2.1877459716796874 2.2428749999999997 L 2.4082459716796873 2.2428749999999997 M 2.6925010986328126 2.3066249999999995 Q 2.6302510986328125 2.3066249999999995 2.5886260986328127 2.2713749999999995 Q 2.5470010986328124 2.2361249999999995 2.5256260986328125 2.174625 Q 2.5042510986328126 2.1131249999999997 2.5042510986328126 2.0366249999999995 Q 2.5042510986328126 1.9586249999999996 2.5256260986328125 1.8978749999999995 Q 2.5470010986328124 1.8371249999999997 2.5886260986328127 1.8018749999999997 Q 2.6302510986328125 1.7666249999999997 2.6925010986328126 1.7666249999999997 Q 2.7547510986328128 1.7666249999999997 2.7963760986328126 1.8018749999999997 Q 2.8380010986328124 1.8371249999999997 2.8590010986328123 1.8978749999999995 Q 2.8800010986328126 1.9586249999999996 2.8800010986328126 2.0366249999999995 Q 2.8800010986328126 2.1131249999999997 2.8590010986328123 2.174625 Q 2.8380010986328124 2.2361249999999995 2.7963760986328126 2.2713749999999995 Q 2.7547510986328128 2.3066249999999995 2.6925010986328126 2.3066249999999995 M 2.6925010986328126 2.245875 Q 2.7322510986328123 2.245875 2.7596260986328125 2.2203749999999998 Q 2.7870010986328126 2.1948749999999997 2.8012510986328127 2.1479999999999997 Q 2.8155010986328124 2.1011249999999997 2.8155010986328124 2.0366249999999995 Q 2.8155010986328124 1.9713749999999997 2.8012510986328127 1.9244999999999997 Q 2.7870010986328126 1.8776249999999997 2.7596260986328125 1.8524999999999996 Q 2.7322510986328123 1.8273749999999995 2.6925010986328126 1.8273749999999995 Q 2.6527510986328124 1.8273749999999995 2.6253760986328123 1.8524999999999996 Q 2.5980010986328126 1.8776249999999997 2.5833760986328125 1.9244999999999997 Q 2.5687510986328124 1.9713749999999997 2.5687510986328124 2.0366249999999995 Q 2.5687510986328124 2.1011249999999997 2.5833760986328125 2.1479999999999997 Q 2.5980010986328126 2.1948749999999997 2.6253760986328123 2.2203749999999998 Q 2.6527510986328124 2.245875 2.6925010986328126 2.245875 M 3.276760986328125 2.2428749999999997 Q 3.288760986328125 2.2428749999999997 3.297010986328125 2.2511249999999996 Q 3.305260986328125 2.2593749999999995 3.305260986328125 2.2713749999999995 Q 3.305260986328125 2.2833749999999995 3.297010986328125 2.29125 Q 3.288760986328125 2.2991249999999996 3.276760986328125 2.2991249999999996 L 3.004510986328125 2.2991249999999996 Q 2.991010986328125 2.2991249999999996 2.982385986328125 2.29125 Q 2.973760986328125 2.2833749999999995 2.973760986328125 2.2698749999999994 Q 2.973760986328125 2.257875 2.982760986328125 2.2481249999999995 L 3.152260986328125 2.0628749999999996 Q 3.189010986328125 2.0238749999999994 3.208510986328125 1.9897499999999997 Q 3.228010986328125 1.9556249999999995 3.228010986328125 1.9233749999999996 Q 3.228010986328125 1.8926249999999996 3.214885986328125 1.8701249999999996 Q 3.201760986328125 1.8476249999999996 3.178510986328125 1.8352499999999996 Q 3.155260986328125 1.8228749999999996 3.123760986328125 1.8228749999999996 Q 3.093760986328125 1.8228749999999996 3.066385986328125 1.8386249999999995 Q 3.039010986328125 1.8543749999999997 3.023260986328125 1.8873749999999996 Q 3.018010986328125 1.8956249999999997 3.011635986328125 1.8989999999999996 Q 3.005260986328125 1.9023749999999997 2.998510986328125 1.9023749999999997 Q 2.988010986328125 1.9023749999999997 2.978260986328125 1.8944999999999996 Q 2.968510986328125 1.8866249999999996 2.968510986328125 1.8761249999999996 Q 2.968510986328125 1.8678749999999997 2.973385986328125 1.8603749999999997 Q 2.978260986328125 1.8528749999999996 2.985010986328125 1.8446249999999997 Q 3.008260986328125 1.8071249999999996 3.047260986328125 1.7868749999999998 Q 3.086260986328125 1.7666249999999997 3.127510986328125 1.7666249999999997 Q 3.178510986328125 1.7666249999999997 3.214885986328125 1.7861249999999997 Q 3.251260986328125 1.8056249999999996 3.270385986328125 1.8404999999999996 Q 3.289510986328125 1.8753749999999996 3.289510986328125 1.9196249999999997 Q 3.289510986328125 1.9481249999999997 3.279385986328125 1.9777499999999997 Q 3.269260986328125 2.0073749999999997 3.248260986328125 2.0388749999999995 Q 3.227260986328125 2.0703749999999994 3.195010986328125 2.104875 L 3.063760986328125 2.2503749999999996 L 3.056260986328125 2.2428749999999997 L 3.276760986328125 2.2428749999999997 M 3.40426611328125 2.2121249999999995 Q 3.40876611328125 2.2121249999999995 3.41439111328125 2.2139999999999995 Q 3.42001611328125 2.2158749999999996 3.42676611328125 2.221875 Q 3.44176611328125 2.2353749999999994 3.46201611328125 2.2436249999999998 Q 3.48226611328125 2.2518749999999996 3.50851611328125 2.2518749999999996 Q 3.54076611328125 2.2518749999999996 3.56776611328125 2.2372499999999995 Q 3.59476611328125 2.222625 3.61164111328125 2.1956249999999997 Q 3.62851611328125 2.1686249999999996 3.62851611328125 2.1333749999999996 Q 3.62851611328125 2.0951249999999995 3.61164111328125 2.0707499999999994 Q 3.59476611328125 2.0463749999999994 3.56889111328125 2.03475 Q 3.54301611328125 2.0231249999999994 3.51451611328125 2.0231249999999994 Q 3.50401611328125 2.0231249999999994 3.49501611328125 2.0246249999999995 Q 3.48601611328125 2.0261249999999995 3.47814111328125 2.0283749999999996 Q 3.47026611328125 2.0306249999999997 3.46351611328125 2.0306249999999997 Q 3.45151611328125 2.0306249999999997 3.44476611328125 2.022375 Q 3.43801611328125 2.0141249999999995 3.43801611328125 2.0021249999999995 Q 3.43801611328125 1.9953749999999997 3.44026611328125 1.9897499999999997 Q 3.44251611328125 1.9841249999999997 3.44776611328125 1.9781249999999997 L 3.59476611328125 1.8161249999999995 L 3.60676611328125 1.8303749999999996 L 3.39376611328125 1.8303749999999996 Q 3.38176611328125 1.8303749999999996 3.37351611328125 1.8221249999999996 Q 3.36526611328125 1.8138749999999997 3.36526611328125 1.8018749999999997 Q 3.36526611328125 1.7898749999999997 3.37351611328125 1.7819999999999996 Q 3.38176611328125 1.7741249999999997 3.39376611328125 1.7741249999999997 L 3.63826611328125 1.7741249999999997 Q 3.65476611328125 1.7741249999999997 3.66226611328125 1.7834999999999996 Q 3.6697661132812502 1.7928749999999996 3.6697661132812502 1.8041249999999995 Q 3.6697661132812502 1.8108749999999996 3.66676611328125 1.8164999999999996 Q 3.66376611328125 1.8221249999999996 3.65851611328125 1.8273749999999995 L 3.51226611328125 1.9901249999999997 L 3.49501611328125 1.9751249999999996 Q 3.49876611328125 1.9721249999999997 3.51226611328125 1.9694999999999996 Q 3.52576611328125 1.9668749999999997 3.53476611328125 1.9668749999999997 Q 3.57676611328125 1.9668749999999997 3.61201611328125 1.9871249999999996 Q 3.64726611328125 2.0073749999999997 3.66826611328125 2.0441249999999997 Q 3.68926611328125 2.080875 3.68926611328125 2.1296249999999994 Q 3.68926611328125 2.1836249999999997 3.66451611328125 2.2233749999999994 Q 3.63976611328125 2.2631249999999996 3.59664111328125 2.2848749999999995 Q 3.55351611328125 2.3066249999999995 3.49951611328125 2.3066249999999995 Q 3.46951611328125 2.3066249999999995 3.44064111328125 2.2972499999999996 Q 3.41176611328125 2.2878749999999997 3.39076611328125 2.2698749999999994 Q 3.38101611328125 2.2646249999999997 3.37764111328125 2.257875 Q 3.37426611328125 2.2511249999999996 3.37426611328125 2.244375 Q 3.37426611328125 2.233125 3.38289111328125 2.222625 Q 3.39151611328125 2.2121249999999995 3.40426611328125 2.2121249999999995" fill="#ffffff" fill-rule="nonzero"></path></g><g clip-path="url(#SvgjsClipPath1015)"><g clip-path="url(#SvgjsClipPath10126d1d3cb4-350d-4281-9601-4ed476bc83f7)"><path d=" M 1.8026212282806235 -0.48591604835957103 C 1.4527199914853328 -0.7057657389523904 1.207594275928554 -1.0770226694047207 1.1592279662729437 -1.5078390776687283 L 1.5372015754624275 -1.1965927742657745 C 1.535844256339915 -1.1898675152452278 1.535161556121085 -1.1830235758377536 1.5351636254576404 -1.1761627143895361 C 1.5351657732573891 -1.1195134243670737 1.5810885595314172 -1.0735906380931814 1.6377378495537267 -1.073588490293599 C 1.6649428990599777 -1.0735874587834182 1.6910340534854311 -1.0843938995638072 1.710271293171303 -1.1036304098756626 C 1.729508532857175 -1.1228669201875185 1.7403159628866325 -1.1489576648635769 1.7403159628670768 -1.1761627143895355 C 1.7403159628670768 -1.203367406615845 1.7295084086457453 -1.2294577514724339 1.7102710570812416 -1.248693644169796 C 1.691033705516738 -1.267929536867158 1.664942541111773 -1.2787351124175783 1.6377378492586354 -1.2787330492678821 C 1.6271524409633147 -1.2787420191419387 1.6166294142682998 -1.2771125964820198 1.6065424354535718 -1.2739026410504504 L 1.1505783464052952 -1.6493638156920465 C 1.1505238973593663 -1.654482026009414 1.150453891443171 -1.659608014761914 1.150453891443171 -1.6647417819495471 C 1.1503970528946839 -1.7642333660497516 1.1609775153409467 -1.8634458995539895 1.1820148919943796 -1.9606879034461602 L 1.537201575462428 -1.668218742453899 C 1.5358436661747876 -1.6614935722103803 1.5351609600482317 -1.6546495735790776 1.535163625457641 -1.647788682577658 C 1.5351636250522638 -1.6205843084433957 1.545970520817172 -1.594494153020983 1.5652069190395967 -1.57525775422527 C 1.5844433172620205 -1.5560213554295572 1.6105334723623614 -1.5452144588871013 1.6377378480251006 -1.5452144584817242 C 1.6649432152724803 -1.5452123953395926 1.6910349690950324 -1.5560185048241486 1.7102724324226373 -1.5752552387692587 C 1.7295098957502424 -1.5944919727143672 1.7403169945065933 -1.6205833168000865 1.740315962867078 -1.64778868257766 C 1.740315962867078 -1.674993374803969 1.729508408645746 -1.7010837196605584 1.7102710570812423 -1.7203196123579203 C 1.6910337055167386 -1.7395555050552818 1.6649425411117738 -1.7503610806057022 1.6377378492586365 -1.750359017456006 C 1.6271520941183681 -1.7503686068070876 1.616628775418147 -1.7487378269611367 1.6065424354535718 -1.745524720021007 L 1.2108534402491884 -2.0713517000803523 C 1.2373872466690183 -2.1582736099467605 1.272430217685913 -2.2423663186858906 1.3154733927850433 -2.322408472425871 L 1.5371899078097306 -2.139833042989324 C 1.5358319985220894 -2.1331078727458053 1.5351492923955334 -2.126263874114502 1.5351519578049428 -2.119402983113083 C 1.5351541056046916 -2.062753693090623 1.581076891878719 -2.0168309068167307 1.6377261819010285 -2.016828759017149 C 1.6649312314072808 -2.0168277275069686 1.6910223858327338 -2.0276341682873573 1.7102596255186064 -2.046870678599212 C 1.7294968652044784 -2.0661071889110696 1.7403042952339356 -2.0921979335871277 1.74030429521438 -2.1194029831130856 C 1.7403053267696371 -2.1466087064840957 1.7294983521217742 -2.172700450341204 1.7102610006252799 -2.191937801837654 C 1.6910236491287853 -2.2111751533341035 1.6649319052716518 -2.2219821279819056 1.6377261819007596 -2.2219810964265854 C 1.6271403720207596 -2.221987488726328 1.6166173453702861 -2.2203554422043 1.6065307678008738 -2.217142909773999 L 1.3686856675283752 -2.4129961279822 C 1.479814204417796 -2.5867578075850703 1.6279931922808277 -2.733794617556337 1.8026095606279267 -2.843575293974658 C 1.9772219014124146 -2.7337921984309297 2.1253978652126353 -2.5867557534660532 2.236525675292346 -2.4129961279822 L 1.9986766858022795 -2.2171429097739983 C 1.9885915087355304 -2.2203557168681853 1.9780697195450068 -2.2219877749421264 1.9674851609198418 -2.2219810964265867 C 1.940279079928809 -2.221982127936765 1.91418693626565 -2.2111752774007027 1.8949489672100017 -2.19193803771907 C 1.8757109981543518 -2.172700798037437 1.8649031583692206 -2.1466090641236732 1.8649031583887752 -2.1194029831130843 C 1.8649031579833777 -2.092197260930633 1.8757111215715894 -2.0661059266752884 1.894949202219219 -2.0468693043214774 C 1.9141872828668485 -2.027632681967667 1.940279436348495 -2.0168266962727643 1.9674851596862957 -2.0168287590170557 C 2.0241344509421526 -2.0168309068168155 2.070057237216112 -2.0627536930907744 2.0700593850157785 -2.1194029831130843 C 2.070062050425187 -2.1262638741145032 2.0693793442986297 -2.1331078727458066 2.0680214350109893 -2.139833042989324 L 2.289737950035676 -2.322408472425874 C 2.3327795021620563 -2.2423655464575143 2.367822405074128 -2.1582730011497078 2.3943579025715307 -2.0713517000803536 L 1.9986650181495813 -1.745524720021007 C 1.9885800789717032 -1.7487381027417217 1.9780579974681771 -1.7503688941767448 1.9674734932671436 -1.7503590174560284 C 1.94026844376831 -1.7503610804959466 1.9141768795707392 -1.7395556289771883 1.894938910502372 -1.7203198480308703 C 1.8757009414340042 -1.7010840670845533 1.8648925221680372 -1.6749937321351636 1.8648914907360772 -1.6477886825776593 C 1.8648925216443621 -1.6205819686815193 1.8757026666455867 -1.5944902648941723 1.8949432712482408 -1.575254766028334 C 1.9141838758508944 -1.5560192671624942 1.9402784477081105 -1.545216047222925 1.9674851609197623 -1.5452222369168556 C 1.9946898528061001 -1.5452212053615668 2.020780607425517 -1.5560277702537233 2.0400172295522117 -1.5752643923804188 C 2.059253851678908 -1.5945010145071137 2.0700604165710645 -1.6205917691265312 2.0700593850157736 -1.6477964610127926 C 2.0700620504251845 -1.654657352014211 2.069379344298627 -1.6615013506455136 2.0680214350109867 -1.668226520889031 L 2.423208118479 -1.96069568188146 C 2.444245495132445 -1.8634536779892947 2.4548259575787212 -1.7642411444850565 2.454769119030245 -1.6647495603846798 C 2.454769119030244 -1.6596157931970468 2.454706891549182 -1.6544898044445466 2.454652442503253 -1.6493715941271792 L 1.9986766858022775 -1.273910419485582 C 1.9885911073727711 -1.2771206496010403 1.9780693181360138 -1.278750083794563 1.9674851609198405 -1.2787408277030368 C 1.940279795247619 -1.2787439223869006 1.9141876316655058 -1.267938802186701 1.894949438946926 -1.248702797615609 C 1.8757112462283445 -1.2294667930445164 1.8649031582127582 -1.2033758586729035 1.8649031583887727 -1.1761704928246677 C 1.8649031579833757 -1.1489647706422157 1.8757111215715883 -1.1228734363868704 1.894949202219217 -1.1036368140330595 C 1.9141872828668465 -1.0844001916792492 1.9402794363484939 -1.0735942059843462 1.9674851596862937 -1.073596268728639 C 2.024134450942151 -1.073598416528398 2.07005723721611 -1.119521202802357 2.0700593850157762 -1.176170492824667 C 2.0700614543523272 -1.1830313542729434 2.0693787541334925 -1.1898752936804173 2.0680214350109765 -1.1966005527009649 L 2.445995044200472 -1.507846856103861 C 2.397632623762428 -1.0770226694047214 2.1525224650759136 -0.7057657389523904 1.8026212282806235 -0.48591604835957103 Z" fill="#e5e5c4" transform="matrix(1,0,0,1,0,0)" fill-rule="evenodd"></path></g><g clip-path="url(#SvgjsClipPath10126d1d3cb4-350d-4281-9601-4ed476bc83f7)"><path d=" M 1.8026212282806235 -0.48591604835957103 C 1.4527122130502 -0.7057657389523904 1.2075709406231552 -1.0770226694047207 1.1592357447080772 -1.507831299233595 L 1.537201575462428 -1.1965927742657738 C 1.5358442563399157 -1.1898675152452258 1.5351615561210856 -1.1830235758377519 1.535163625457641 -1.1761627143895341 C 1.5351636250522638 -1.1489583402552705 1.545970520817172 -1.122868184832858 1.5652069190395967 -1.1036317860371454 C 1.5844433172620205 -1.084395387241432 1.6105334723623614 -1.073588490698976 1.6377378480251006 -1.073588490293599 C 1.6649428990599788 -1.0735874587834182 1.6910340534854318 -1.0843938995638072 1.7102712931713038 -1.1036304098756626 C 1.7295085328571764 -1.1228669201875185 1.7403159628866331 -1.1489576648635769 1.740315962867078 -1.1761627143895355 C 1.740315962867078 -1.2033674066158444 1.729508408645746 -1.2294577514724332 1.7102710570812423 -1.2486936441697953 C 1.6910337055167386 -1.2679295368671575 1.6649425411117738 -1.2787351124175776 1.6377378492586365 -1.278733049267881 C 1.6271524409633147 -1.2787420191419367 1.6166294142682998 -1.2771125964820185 1.6065424354535718 -1.2739026410504486 L 1.1505783464052965 -1.6493638156920458 C 1.1505238973593674 -1.6544820260094133 1.150446113008039 -1.6596080147619134 1.150446113008039 -1.6647417819495465 C 1.15039183029214 -1.7642336448269864 1.1609749007046493 -1.8634461814747536 1.1820148919943967 -1.9606879034462448 L 1.537201575462428 -1.6682187424538977 C 1.5358436661747876 -1.6614935722103803 1.5351609600482317 -1.6546495735790776 1.535163625457641 -1.647788682577658 C 1.5351625939023836 -1.6205839906912678 1.545969158794574 -1.5944932360718644 1.5652057809212938 -1.575256613945194 C 1.5844424030480138 -1.556019991818522 1.610533157667444 -1.5452134269263977 1.6377378495537056 -1.545214458481723 C 1.6649432152724803 -1.5452123953395913 1.6910349690950324 -1.5560185048241468 1.7102724324226373 -1.5752552387692567 C 1.7295098957502424 -1.5944919727143654 1.7403169945065933 -1.6205833168000845 1.740315962867078 -1.647788682577658 C 1.740315962867078 -1.6749933748039683 1.729508408645746 -1.701083719660557 1.7102710570812423 -1.7203196123579192 C 1.6910337055167386 -1.7395555050552811 1.6649425411117738 -1.7503610806057015 1.6377378492586365 -1.7503590174560053 C 1.6271520941183681 -1.7503686068070863 1.616628775418147 -1.7487378269611356 1.6065424354535718 -1.7455247200210062 L 1.2108534402491884 -2.0713633677330505 C 1.2373893944952132 -2.1582807626884883 1.272432294459624 -2.242369392792678 1.3154733927850433 -2.322408472425871 L 1.5371899078097306 -2.1398330429893226 C 1.5358319985220894 -2.1331078727458053 1.5351492923955334 -2.126263874114502 1.5351519578049428 -2.119402983113083 C 1.5351519573995658 -2.0921986089788196 1.5459588531644737 -2.0661084535564065 1.5651952513868987 -2.0468720547606933 C 1.5844316496093223 -2.0276356559649797 1.6105218047096634 -2.016828759422525 1.637726180372403 -2.016828759017148 C 1.6649312314072808 -2.016827727506967 1.6910223858327338 -2.027634168287356 1.7102596255186064 -2.046870678599211 C 1.7294968652044784 -2.066107188911067 1.7403042952339356 -2.092197933587125 1.74030429521438 -2.119402983113083 C 1.7403053267696371 -2.1466087064840944 1.7294983521217742 -2.172700450341204 1.7102610006252799 -2.1919378018376525 C 1.6910236491287853 -2.2111751533341035 1.6649319052716518 -2.2219821279819056 1.6377261819007596 -2.2219810964265854 C 1.6271403720207596 -2.2219874887263265 1.6166173453702861 -2.2203554422042986 1.6065307678008738 -2.2171429097739983 L 1.3686856675283752 -2.413003906417332 C 1.4798188206862637 -2.586759761367723 1.6279969978313877 -2.7337931106570514 1.8026095606279273 -2.843575293974658 Z" fill="#bfbe5f" transform="matrix(1,0,0,1,0,0)" fill-rule="evenodd"></path></g><g clip-path="url(#SvgjsClipPath10126d1d3cb4-350d-4281-9601-4ed476bc83f7)"><path d=" M 1.5266345713345502 -0.43530954938572153 C 1.2873343694407327 -0.2616597583757607 0.981965273216497 -0.20647139946065396 0.6970216830306144 -0.28537632298387106 L 0.9971992732396253 -0.44890625399781614 C 1.0011992445866993 -0.4462686263226865 1.0054532200717146 -0.44403805786009976 1.009897568593885 -0.44224791352415904 C 1.0275152704946333 -0.4351506503267579 1.0472308304432267 -0.4353430011534045 1.0647067059588546 -0.4427826476583876 C 1.0821825814744823 -0.4502222941633707 1.0959871135076513 -0.46429976546585605 1.1030832214845578 -0.48191793270132477 C 1.110181699898977 -0.4995360903792516 1.109989984473704 -0.5192526310292349 1.1025502573712649 -0.5367294252548787 C 1.0951105302688244 -0.5542062194805237 1.0810323269370414 -0.568011396804835 1.0634132023073923 -0.5751074748095641 C 1.0267325666515983 -0.5898917186439232 0.9850120232880468 -0.572141333875642 0.9702275494167195 -0.5354607909377966 C 0.9674607212438238 -0.5286057563604012 0.9657709703285899 -0.521363966723682 0.965218237191212 -0.5139923099713317 L 0.6031048572374604 -0.3167195273513985 C 0.5997795762181977 -0.3180146368010064 0.5964426275462367 -0.3193058570330467 0.5931212357445412 -0.3206515263110177 C 0.528679224314799 -0.34657187873113715 0.4671958954092565 -0.37931361584785517 0.4097212921839165 -0.41831755783816993 L 0.6917984638389543 -0.5719844331037534 C 0.6957983245569346 -0.5693475107120642 0.7000539171022303 -0.5671206865663474 0.70450064841078 -0.565337760282794 C 0.7221182581656057 -0.5582394219390645 0.7418342503646739 -0.5584312414709207 0.7593104169101006 -0.5658710118700592 C 0.7767865834555274 -0.5733107822691967 0.7905910321515961 -0.5873889334022162 0.7976863013014528 -0.6050077794599602 C 0.8047835644988541 -0.6226254813607084 0.8045912136722073 -0.6423410413093014 0.7971515671672241 -0.659816916824929 C 0.789711920662241 -0.6772927923405567 0.7756344493597567 -0.6910973243737271 0.7580162821242873 -0.6981934323506329 C 0.7213292103276874 -0.7129704451723851 0.6796092212907371 -0.6952098488377896 0.6648306292336157 -0.6585234131734672 C 0.6620638324385987 -0.6516697207797431 0.6603740753029189 -0.644429216407215 0.659821317008107 -0.6370588214245676 L 0.34557253764390206 -0.4658593533697051 C 0.2962170141191383 -0.5057271701062005 0.250911564542618 -0.5503630296809288 0.21031332912003606 -0.5991195040644484 L 0.3863937652207171 -0.6950509445569901 C 0.3903943884065349 -0.6924142444011978 0.3946498242815688 -0.6901861992859786 0.3990959497925428 -0.688400382518465 C 0.41671365169329105 -0.681303119321063 0.43642921164188464 -0.6814954701477101 0.4539050871575124 -0.6889351166526931 C 0.4713809626731401 -0.6963747631576762 0.48518549470630923 -0.7104522344601611 0.49228160268321564 -0.7280704016956299 C 0.49938115637071245 -0.7456884671769961 0.4991899723179903 -0.7654054401318815 0.49175012130525736 -0.7828825254373815 C 0.4843102702925232 -0.800359610742881 0.47023138703456896 -0.8141647047322227 0.45261158350605013 -0.8212599438038684 C 0.4349938816053019 -0.8283572070012708 0.4152783216567096 -0.8281648561746238 0.39780244614108184 -0.8207252096696407 C 0.38032657062545405 -0.8132855631646585 0.3665220385922837 -0.7992080918621727 0.3594259306153773 -0.781589924626704 C 0.35665931292508196 -0.7747361755565065 0.3549695623749571 -0.7674956994026707 0.3544166183898686 -0.7601253328778048 L 0.16552509962550374 -0.6572244145062927 C 0.08201237444203048 -0.7745242087524846 0.02547196787483041 -0.9088402131065345 -0.00004667061079634281 -1.0505526546478796 C 0.11660074304758643 -1.1349759096306566 0.25047496314533757 -1.1925577616798446 0.39198646008118326 -1.2191735714562273 L 0.4567458217791214 -1.0140562370048884 C 0.45203221657965 -1.008359136629883 0.4482277080259269 -1.001967562259627 0.4454670908365937 -0.9951079690214426 C 0.4383698276391923 -0.9774902671206938 0.43856217846583917 -0.9577747071721008 0.4460018249708223 -0.9402988316564731 C 0.45344147147580416 -0.9228229561408454 0.46751894277828987 -0.9090184241076751 0.4851371100137592 -0.9019223161307692 C 0.5218177234099493 -0.8871403968651623 0.5635366296241697 -0.904890085093365 0.5783227629044321 -0.9415690000025352 C 0.5854215215487112 -0.9591882535400138 0.5852300143697311 -0.9789058911491217 0.5777903738384126 -0.9963839407620625 C 0.5703507333070927 -1.0138619903750041 0.5562724255187781 -1.0276686249287676 0.5386527437272666 -1.0347663205459074 C 0.5342116552609545 -1.0365566548737055 0.529603619076536 -1.0379011539809497 0.5248965811949501 -1.0387799930744193 L 0.464532035347031 -1.2299933747259197 C 0.5275929770842087 -1.2369727294417836 0.5911882474190868 -1.23772047996766 0.6543958585029946 -1.2322257856090268 L 0.762127185091961 -0.8909819471165179 C 0.7574155414623076 -0.8852863235212167 0.7536111833949618 -0.8788976256632937 0.7508484541494334 -0.8720414575682054 C 0.7437513310634313 -0.8544243035837713 0.7439437860173873 -0.8347092921085086 0.7513834758110977 -0.8172340442881638 C 0.7588231656048092 -0.7997587964678181 0.7729005846787608 -0.7859549930573309 0.7905184733265975 -0.7788596938950993 C 0.8081329569722782 -0.7717578970473564 0.8278473568877803 -0.7719453395003923 0.8453236220434008 -0.779380775518606 C 0.8627998871990225 -0.78681621153682 0.8766060464004531 -0.8008903959468063 0.8837041262172703 -0.8185063777668646 C 0.8908046154446471 -0.8361238030708749 0.8906138588310365 -0.8558406600587969 0.8831738405489596 -0.8733174088861064 C 0.8757338222668841 -0.8907941577134146 0.8616543110374627 -0.9045984396979458 0.8440341070401062 -0.9116920306575376 C 0.8395945285066679 -0.9134876379034205 0.8349860891431242 -0.9148335575705229 0.8302779445077897 -0.9157095924036167 L 0.7335764389371013 -1.2220204787148228 C 0.8020334632920778 -1.2102653679678266 0.8690386282822231 -1.1912298097319909 0.9334511081089477 -1.1652379022455484 C 0.9367686106930785 -1.1638883437500116 0.940062777971809 -1.1625154499490764 0.943364723685673 -1.1611386669305748 L 1.0675085484047993 -0.7679115464457142 C 1.062794482998243 -0.7622147705198796 1.0589899300391592 -0.7558231215486209 1.0562298174622728 -0.7489632784622691 C 1.0491305913993962 -0.7313502540395698 1.0493194089993154 -0.7116383640080213 1.0567547271342237 -0.6941645640710008 C 1.064190045269132 -0.6766907641339786 1.0782627132036315 -0.6628866242510596 1.0958765013340384 -0.6557892932242937 C 1.1134926289874392 -0.6486870759375147 1.133208674464983 -0.648874206072446 1.1506868226874316 -0.6563095122936891 C 1.1681649709098805 -0.6637448185149317 1.1819733158180643 -0.6778191596311842 1.1890738218774093 -0.6954359770960603 C 1.1961710850748113 -0.7130536789968085 1.1959787342481645 -0.7327692389454019 1.1885390877431814 -0.7502451144610296 C 1.1810994412381988 -0.7677209899766577 1.1670219699357132 -0.7815255220098272 1.1494038027002444 -0.788621629986733 C 1.1449646981568407 -0.7904167672212599 1.1403560429316377 -0.7917601439634661 1.1356476401679279 -0.7926314132976802 L 1.0327389433612844 -1.1186022944069811 C 1.2928023179111237 -0.9778974399036058 1.4746016838687324 -0.7263823813110584 1.5266345713345502 -0.43530954938572153 Z" fill="#e5e5c4" transform="matrix(1,0,0,1,0,0)" fill-rule="evenodd"></path></g><g clip-path="url(#SvgjsClipPath10126d1d3cb4-350d-4281-9601-4ed476bc83f7)"><path d=" M 1.5266345713345502 -0.43530954938572153 C 1.2873343694407327 -0.2616597583757607 0.981965273216497 -0.20647139946065396 0.6970216830306144 -0.28537632298387106 L 0.9971992732396253 -0.44890625399781614 C 1.001199694289425 -0.4462693887578184 1.0054535914642038 -0.44403886135713755 1.0098975685938862 -0.44224791352415904 C 1.0465846403904862 -0.4274709007024069 1.0883046294274363 -0.4452314970370024 1.1030832214845578 -0.48191793270132477 C 1.110181699898977 -0.4995360903792516 1.109989984473704 -0.5192526310292349 1.1025502573712649 -0.5367294252548787 C 1.0951105302688244 -0.5542062194805237 1.0810323269370414 -0.568011396804835 1.0634132023073923 -0.5751074748095641 C 1.0267325666515983 -0.5898917186439232 0.9850120232880468 -0.572141333875642 0.9702275494167195 -0.5354607909377966 C 0.9674607212438238 -0.5286057563604012 0.9657709703285899 -0.521363966723682 0.965218237191212 -0.5139923099713317 L 0.6031048572374604 -0.3167195273513985 C 0.5997795762181977 -0.3180146368010064 0.5964426275462367 -0.3193058570330467 0.5931212357445412 -0.3206515263110177 C 0.528679224314799 -0.34657187873113715 0.4671958954092565 -0.37931361584785517 0.4097212921839165 -0.41831755783816993 L 0.6917984638389543 -0.5719844331037534 C 0.6958000718244551 -0.5693504772107736 0.7000553582215183 -0.5671238132632594 0.70450064841078 -0.565337760282794 C 0.7221164299580808 -0.5582376906688293 0.7418316419572335 -0.5584287593450923 0.7593065079419091 -0.5658689076543006 C 0.7767813739265848 -0.5733090559635077 0.7905834698847893 -0.5873884110116285 0.7976746336487547 -0.6050077794599589 C 0.8047764304964968 -0.6226222631056402 0.804588988043461 -0.6423366630211422 0.7971535520252475 -0.6598129281767626 C 0.7897181160070327 -0.6772891933323848 0.775643931597047 -0.6910953525338148 0.758027949776988 -0.6981934323506329 C 0.7213408779803868 -0.7129704451723851 0.6796208889434365 -0.6952098488377896 0.6648422968863151 -0.6585234131734672 C 0.6620755000912981 -0.6516697207797431 0.6603857429556184 -0.644429216407215 0.6598329846608064 -0.6370588214245676 L 0.3455842052966015 -0.4658593533697051 C 0.2962304994886123 -0.5057292065120089 0.25092524131203475 -0.5503648775155807 0.21032499677273547 -0.5991195040644479 L 0.3864054328734165 -0.6950509445569901 C 0.39040605605923556 -0.6924142444011978 0.3946614919342682 -0.6901861992859786 0.3991076174452422 -0.688400382518465 C 0.41672531934599044 -0.681303119321063 0.436440879294584 -0.6814954701477101 0.45391675481021176 -0.6889351166526931 C 0.47139263032583956 -0.6963747631576762 0.4851971623590099 -0.7104522344601611 0.492293270335915 -0.7280704016956299 C 0.4993928240234119 -0.7456884671769961 0.49920163997068967 -0.7654054401318815 0.4917617889579568 -0.7828825254373815 C 0.4843219379452239 -0.800359610742881 0.4702430546872696 -0.8141647047322227 0.45262325115875085 -0.8212599438038684 C 0.43500564140392506 -0.8283582821475992 0.4152896492048569 -0.828166462615743 0.3978134826594314 -0.820726692216605 C 0.3803373161140034 -0.813286921817467 0.3665328674179346 -0.799208770684448 0.359437598268078 -0.781589924626704 C 0.35667181562251155 -0.7747359113452199 0.354982095761808 -0.7674955666936456 0.35442828604256926 -0.7601253328778048 L 0.16553676727820313 -0.6572244145062927 C 0.08202404209472988 -0.7745242087524846 0.025483635527529816 -0.9088402131065345 -0.00003500295809565606 -1.0505526546478796 Z" fill="#bfbe5f" transform="matrix(1,0,0,1,0,0)" fill-rule="evenodd"></path></g><g clip-path="url(#SvgjsClipPath10126d1d3cb4-350d-4281-9601-4ed476bc83f7)"><path d=" M 2.0785923283564314 -0.43530954938572153 C 2.3178939579750018 -0.2616596325793825 2.623264263725047 -0.2064713137929579 2.908209105877934 -0.28537632298387106 L 2.608035404886489 -0.44890625399781614 C 2.6040358982915977 -0.44626783854126284 2.59978184173677 -0.4440372275697877 2.5953371095322297 -0.44224791352415904 C 2.558650037735628 -0.4274709007024069 2.516930048698678 -0.4452314970370024 2.502151456641557 -0.48191793270132477 C 2.495052978227138 -0.4995360903792516 2.49524469365241 -0.5192526310292349 2.50268442075485 -0.5367294252548787 C 2.51012414785729 -0.5542062194805237 2.5242023511890728 -0.568011396804835 2.5418214758187223 -0.5751074748095641 C 2.5785020892149126 -0.5898893940751702 2.620220995429133 -0.572139705846967 2.6350071287093946 -0.5354607909377966 C 2.6377739568822904 -0.5286057563604012 2.6394637077975247 -0.521363966723682 2.6400164409349034 -0.5139923099713317 L 3.0021259316710878 -0.3167195273513985 C 3.0054551019079168 -0.3180146368010064 3.008792050579878 -0.3193058570330467 3.0121134423815734 -0.3206515263110177 C 3.076553356069848 -0.34657110921719214 3.138034186257681 -0.3793129043496708 3.1955056075070667 -0.41831755783816993 L 2.913436214287161 -0.5719844331037534 C 2.90943679755236 -0.569349082374834 2.9051826569936305 -0.5671223362140783 2.9007379189329017 -0.565337760282794 C 2.883120401376981 -0.5582383465957612 2.863403976831481 -0.5584296347232844 2.8459275191821702 -0.5658695290481162 C 2.828451061532859 -0.5733094233729483 2.814646696186336 -0.5873882544815952 2.807552266042228 -0.6050077794599602 C 2.8004528523551953 -0.622625297015881 2.800644140482719 -0.64234172156138 2.80808403480755 -0.6598181792106907 C 2.8155239291323824 -0.6772946368600019 2.82960276024103 -0.691099002206526 2.8472222852193942 -0.6981934323506329 C 2.8839093342436946 -0.712968120763362 2.925627686424332 -0.6952082212540751 2.9404079381100665 -0.6585234131734672 C 2.943171104636203 -0.65166857249329 2.944860728505241 -0.6444286391600444 2.9454172503355744 -0.6370588214245676 L 3.25966602969978 -0.4658593533697051 C 3.3090172794267074 -0.5057293158638316 3.3543199459366475 -0.5503650003961695 3.3949174597885134 -0.5991195040644479 L 3.218837023687832 -0.6950509445569901 C 3.2148390943811047 -0.692416645698493 3.210587774319472 -0.6901887090434542 3.2061465067687056 -0.6884003825184659 C 3.188528349090778 -0.6813019041040453 3.1688118084407955 -0.6814936195293178 3.151335014215151 -0.6889333466317566 C 3.133858219989506 -0.6963730737341978 3.120053042665195 -0.7104512770659803 3.112956964660466 -0.7280704016956299 C 3.105858486246045 -0.7456885593735572 3.1060502016713176 -0.76540510002354 3.1134899287737583 -0.7828818942491838 C 3.1209296558761985 -0.8003586884748284 3.1350078592079815 -0.8141638657991401 3.1526269838376306 -0.8212599438038688 C 3.170244593592456 -0.8283582821475992 3.189960585791524 -0.828166462615743 3.207436752336951 -0.820726692216605 C 3.224912918882377 -0.813286921817467 3.2387173675784457 -0.799208770684448 3.2458126367283033 -0.781589924626704 C 3.248582907817527 -0.7747373321437818 3.2502727929192132 -0.7674962794448663 3.250821948953812 -0.7601253328778061 L 3.4397134677181778 -0.6572244145062927 C 3.523203888652395 -0.7745253276693584 3.5797265895175596 -0.9088349734738459 3.605234678126113 -1.050537097777613 C 3.488586180189923 -1.1349584428471886 3.3547124036149225 -1.1925401041287933 3.2132015474341347 -1.219158014585963 L 3.1484421857361973 -1.0140406801346231 C 3.1531546168757902 -1.008342752157762 3.156959012248665 -1.001951367931332 3.159720916678724 -0.9950924121511773 C 3.1744956050914546 -0.9584053631268765 3.156735705582168 -0.9166870109462384 3.1200508975015593 -0.9019067592605043 C 3.0833681739033074 -0.8871266396498132 3.0416485652031535 -0.9048751452457304 3.0268574661757537 -0.9415534431322705 C 3.012079667771169 -0.9782437131431319 3.029839533830245 -1.0199672102385835 3.0665274853529185 -1.0347507636756421 C 3.0709727428409392 -1.036540648563503 3.0755846032205088 -1.0378851231148345 3.0802953155379345 -1.0387644362041544 L 3.1406598613858527 -1.2299778178556544 C 3.0775963118301513 -1.2369570792563058 3.0139984704895566 -1.2377048293777633 2.950788259794758 -1.232210228738762 L 2.8430569332057916 -0.8909663902462526 C 2.8477685768354437 -0.8852707666509518 2.85157293490279 -0.8788820687930288 2.8543356641483184 -0.8720259006979401 C 2.869112415239756 -0.835339894938024 2.851351575395171 -0.7936210751501402 2.814665644971155 -0.7788441370248331 C 2.797049972937653 -0.7717431349669748 2.777334908087192 -0.7719309005789627 2.7598576785957527 -0.7793661262460918 C 2.742380449104313 -0.78680135191322 2.7285727495879892 -0.8008749609759249 2.721472213645349 -0.8184908208965993 C 2.7143749504479473 -0.8361085227973475 2.7145673012745943 -0.8558240827459411 2.7220069477795774 -0.8732999582615688 C 2.7294465942845605 -0.8907758337771967 2.7435240655870454 -0.9045803658103664 2.761142232822514 -0.911676473787272 C 2.765584999278445 -0.9134706072153707 2.770195868396699 -0.9148164754830035 2.774906173789963 -0.9156940355333518 L 2.8716076793606513 -1.222004921844558 C 2.8031517996008115 -1.2102503244141491 2.736147869810888 -1.191214746687837 2.67173689940637 -1.1652223453752837 C 2.668415507604674 -1.1638714904738907 2.665109672673244 -1.162505078702233 2.6618193946120785 -1.1611231100603092 L 2.537671680675386 -0.7678959895754494 C 2.5423884652725963 -0.7622011312316794 2.5461932810755554 -0.7558090406827098 2.548950411617914 -0.7489477215920042 C 2.556049419617682 -0.7313342069415301 2.555860049623135 -0.711621907490982 2.548423967815818 -0.6941480269752489 C 2.5409878860085007 -0.6766741464595154 2.526914330350105 -0.6628703193904397 2.5092998385285807 -0.6557737363540288 C 2.491685447327764 -0.6486708641158057 2.4719706151459953 -0.6488577750357258 2.4544940588351114 -0.6562933349285953 C 2.4370175025242276 -0.6637288948214644 2.423211426532381 -0.6778037592739086 2.416114185637908 -0.6954204202257959 C 2.409013463983644 -0.7130349962633025 2.4092014378602102 -0.7327489640084912 2.4166367500352983 -0.7502249380829582 C 2.4240720622103873 -0.7677009121574256 2.438145566723043 -0.7815071545560248 2.4557608695096738 -0.7886060731164681 C 2.460202995564024 -0.7904002160882042 2.4648141285777094 -0.7917435554883485 2.469524810477123 -0.7926158564274144 L 2.572433507283768 -1.1185867375367162 C 2.312397880968549 -0.9778691959856922 2.1306217894141475 -0.7263643356981202 2.0785923283564314 -0.43530954938572197 Z" fill="#e5e5c4" transform="matrix(1,0,0,1,0,0)" fill-rule="evenodd"></path></g><g clip-path="url(#SvgjsClipPath10126d1d3cb4-350d-4281-9601-4ed476bc83f7)"><path d=" M 2.0785923283564314 -0.43530954938572153 C 2.3178917912947186 -0.26166149853919807 2.6232589090886 -0.20647323845728982 2.908201327442801 -0.28537632298387106 L 2.6080354048864884 -0.44890625399781614 C 2.6040358982915977 -0.44626783854126284 2.59978184173677 -0.4440372275697877 2.5953371095322297 -0.44224791352415904 C 2.5586500377356276 -0.4274709007024069 2.5169300486986765 -0.4452314970370024 2.5021514566415557 -0.48191793270132477 C 2.4873669509307814 -0.518599634579779 2.5051170923637036 -0.5603213472415645 2.541798140513322 -0.5751074748095628 C 2.5784809086317773 -0.5898922424620521 2.6202037906436817 -0.5721423443221068 2.6349915718391275 -0.5354607909377966 C 2.6377584000120238 -0.5286057563604012 2.6394481509272576 -0.521363966723682 2.640000884064636 -0.5139923099713317 L 3.002110374800821 -0.3167195273513985 C 3.0054395450376497 -0.3180146368010064 3.0087764937096115 -0.3193058570330467 3.0120978855113067 -0.3206515263110177 C 3.0765395193064147 -0.3465726895247152 3.1380227638585496 -0.37931438172068654 3.1954978290719316 -0.41831755783816993 L 2.9134206574168933 -0.5719844331037534 C 2.909419492508377 -0.5693520507427943 2.9051656571978093 -0.5671254643581816 2.900722362062634 -0.565337760282794 C 2.8831048445067133 -0.5582383465957612 2.8633884199612143 -0.5584296347232844 2.8459119623119027 -0.5658695290481162 C 2.8284355046625924 -0.5733094233729483 2.8146311393160683 -0.5873882544815947 2.8075367091719614 -0.6050077794599602 C 2.8004372954849286 -0.622625297015881 2.8006285836124523 -0.64234172156138 2.8080684779372835 -0.6598181792106907 C 2.8155083722621157 -0.6772946368600019 2.8295872033707625 -0.691099002206526 2.8472067283491267 -0.6981934323506329 C 2.883893800145728 -0.7129704451723851 2.925613789182678 -0.6952098488377896 2.9403923812397985 -0.6585234131734672 C 2.9431555477659357 -0.65166857249329 2.9448451716349733 -0.6444286391600444 2.9454016934653073 -0.6370588214245676 L 3.2596504728295135 -0.4658593533697051 C 3.3090017225564408 -0.5057293158638316 3.35430438906638 -0.5503650003961695 3.394901902918246 -0.5991195040644479 L 3.218829245252697 -0.6950509445569901 C 3.214827676128081 -0.6924181749961544 3.2105739335351906 -0.6901903343119757 3.2061309498984385 -0.688400382518465 C 3.1885127922205108 -0.6813019041040453 3.1687962515705284 -0.6814936195293178 3.151319457344884 -0.6889333466317566 C 3.1338426631192395 -0.6963730737341978 3.1200374857949282 -0.7104512770659803 3.112941407790199 -0.7280704016956299 C 3.098157332503237 -0.7647531836889745 3.1159094080236587 -0.8064753496080357 3.152591980879532 -0.8212599438038684 C 3.170210138557459 -0.8283584222182885 3.189926679207441 -0.828166706793017 3.2074034734330863 -0.8207269796905772 C 3.2248802676587305 -0.8132872525881365 3.2386854449830413 -0.7992090492563535 3.245781522987771 -0.781589924626704 C 3.248550953428831 -0.774737065920688 3.2502408075294293 -0.7674961460595031 3.2507908352132793 -0.7601253328778048 L 3.439682353977645 -0.6572244145062927 C 3.5231838205659893 -0.7745225876620028 3.579717224463058 -0.9088324192852457 3.605234678126114 -1.0505370977776136 Z" fill="#bfbe5f" transform="matrix(1,0,0,1,0,0)" fill-rule="evenodd"></path></g></g></g><defs><clipPath id="SvgjsClipPath1015"><path d=" M 0 -2.8435675155395232 h 3.6052346781261138 v 2.5935675155395232 h -3.6052346781261138 Z"></path></clipPath><clipPath id="SvgjsClipPath10126d1d3cb4-350d-4281-9601-4ed476bc83f7"><path d=" M 0 -2.8435675155395232 L 3.6052346781261138 -2.8435675155395232 L 3.6052346781261138 -0.25 L 0 -0.25 Z"></path></clipPath></defs></svg>