<svg version="1.1" preserveAspectRatio="none" xmlns="http://www.w3.org/2000/svg" width="500" height="500" viewBox="0 0 500 500"><rect width="100%" height="100%" fill="#000000" fill-opacity="1"/><svg viewBox="-332.9968 362.3728 224.2287 222" width="333" height="329.69017792994384" x="83.5px" y="85.1549px" xmlns="http://www.w3.org/2000/svg" xmlns:xlink="http://www.w3.org/1999/xlink" preserveAspectRatio="none"><defs></defs><style>.aRWrrEA-PR0filter-floo {flood-color:#E9B0D6;flood-opacity:0.5;}.atUk6sjh6M0filter-floo {flood-color:#FFFFFF;flood-opacity:0.89;}.companyName {fill:#FFFFFF;fill-opacity:1;}.icon3 {fill:#F55139;fill-opacity:1;}.icon3-str {stroke:#F55139;stroke-opacity:1;}.shape-floo {flood-color:#2525CE;flood-opacity:1;}.text {fill:#F3F3F3;fill-opacity:1;}</style><defs>
      <filter
        x="-332.9968"
        y="362.3728"
        width="224.2287"
        height="222"
        id="ikYEXSHZT"
        filterUnits="userSpaceOnUse"
        primitiveUnits="userSpaceOnUse"
        color-interpolation-filters="sRGB">
        
    <feGaussianBlur in="SourceGraphic" stdDeviation="7"/>
    <feOffset dx="3.860375059564381" dy="3.860375059564381" result="a8hck3w9z6-5"/>
    <feFlood flood-color="#2525CE" flood-opacity="1" in="a8hck3w9z6-5" />
    <feComposite  in2="a8hck3w9z6-5" operator="in" result="RYrZu612JP6"/><feMerge result="p-TjO46qo-m"><feMergeNode in="RYrZu612JP6" /><feMergeNode in="SourceGraphic" /></feMerge><feGaussianBlur  result="wPYepYK3NZc" stdDeviation="10" />
      </filter>
      <filter
        x="-291.771"
        y="397.5124"
        width="134.0564"
        height="144"
        id="tUk6sjh6M"
        filterUnits="userSpaceOnUse"
        primitiveUnits="userSpaceOnUse"
        color-interpolation-filters="sRGB">
        
    <feGaussianBlur in="SourceGraphic" stdDeviation="4"/>
    <feOffset dx="0" dy="0" result="dkflRe-Zoz2"/>
    <feFlood flood-color="#FFFFFF" flood-opacity="0.89" in="dkflRe-Zoz2" />
    <feComposite  in2="dkflRe-Zoz2" operator="in" result="axWbdbVWKOu"/><feMerge result="ffU8WLNv93y"><feMergeNode in="axWbdbVWKOu" /><feMergeNode in="SourceGraphic" /></feMerge>
      </filter></defs><g opacity="1" transform="rotate(0 -329.6706 557.5124)">
<svg width="209.8556" height="16.8" x="-329.6706" y="557.5124" version="1.1" preserveAspectRatio="none" viewBox="1.56 -28.32 452.64 36.24">
  <g transform="matrix(1 0 0 1 0 0)" class="text"><path id="id-6izo4zJp21" d="M15.04-2.60L15.04-2.60Q17.88-2.60 20.02-4.04Q22.16-5.48 23.20-7.92L23.20-7.92L26.36-7.92Q25.04-4.16 22-2L22-2Q18.76 0.32 14.36 0.32L14.36 0.32Q8.56 0.32 4.96-3.64L4.96-3.64Q1.56-7.44 1.56-13.24Q1.56-19.04 4.96-22.84L4.96-22.84Q8.56-26.80 14.36-26.80L14.36-26.80Q18.76-26.80 22-24.48L22-24.48Q25.04-22.32 26.36-18.56L26.36-18.56L23.20-18.56Q22.16-21 20.02-22.44Q17.88-23.88 15.04-23.88Q12.20-23.88 10.32-23.06Q8.44-22.24 7.16-20.80L7.16-20.80Q4.56-17.88 4.56-13.24L4.56-13.24Q4.56-8.60 7.16-5.68L7.16-5.68Q9.88-2.60 15.04-2.60Z M44.56-20.32L44.76-20.32L44.76-17.32L44.40-17.32Q41.16-17.32 39.12-14.72L39.12-14.72Q37.20-12.24 37.20-8.80L37.20-8.80L37.20 0L34.20 0L34.20-20L37.20-20L37.20-15.08Q38.16-18.20 41.36-19.68L41.36-19.68Q42.68-20.32 44.56-20.32L44.56-20.32Z M67.08 0L67.08-3.20Q64.68 0.32 59.92 0.32L59.92 0.32Q55.60 0.32 52.88-2.68L52.88-2.68Q50.24-5.64 50.24-10L50.24-10Q50.24-14.36 52.88-17.32L52.88-17.32Q55.60-20.32 60.12-20.32Q64.64-20.32 67.08-16.76L67.08-16.76L67.08-20L70.08-20L70.08 0L67.08 0ZM60.32-2.40L60.32-2.40Q63.56-2.40 65.44-4.64L65.44-4.64Q67.24-6.76 67.24-10L67.24-10Q67.24-13.24 65.44-15.36L65.44-15.36Q63.56-17.60 60.32-17.60L60.32-17.60Q57.12-17.60 55.12-15.36L55.12-15.36Q53.24-13.24 53.24-10L53.24-10Q53.24-6.76 55.12-4.64L55.12-4.64Q57.12-2.40 60.32-2.40Z M88.28-25.48L87.88-25.48Q85.76-25.48 84.70-24.54Q83.64-23.60 83.64-21.52L83.64-21.52L83.64-20L88.28-20L88.28-17.36L83.64-17.36L83.64 0L80.64 0L80.64-17.36L77.20-17.36L77.20-20L80.64-20L80.64-21.76Q80.64-25.04 82.60-26.68Q84.56-28.32 88.04-28.32L88.04-28.32L88.28-28.32L88.28-25.48Z M100.72 0L97.72 0L97.72-17.36L93.64-17.36L93.64-20L97.72-20L97.72-27.16L100.72-27.16L100.72-20L105.32-20L105.32-17.36L100.72-17.36L100.72 0Z M136.60-10.48L136.60 0L133.60 0L133.60-10.48L122.48-26.48L126.12-26.48L135.08-13.60L144.04-26.48L147.68-26.48L136.60-10.48Z M159.68-20.32L159.68-20.32Q164.16-20.32 166.96-17.32L166.96-17.32Q169.60-14.44 169.60-10L169.60-10Q169.60-5.56 166.96-2.68L166.96-2.68Q164.16 0.32 159.68 0.32L159.68 0.32Q155.20 0.32 152.40-2.68L152.40-2.68Q149.76-5.56 149.76-10L149.76-10Q149.76-14.44 152.40-17.32L152.40-17.32Q155.20-20.32 159.68-20.32ZM159.68-2.40L159.68-2.40Q162.92-2.40 164.80-4.64L164.80-4.64Q166.60-6.76 166.60-10L166.60-10Q166.60-13.24 164.80-15.36L164.80-15.36Q162.92-17.60 159.68-17.60L159.68-17.60Q156.44-17.60 154.56-15.36L154.56-15.36Q152.76-13.24 152.76-10L152.76-10Q152.76-6.76 154.56-4.64L154.56-4.64Q156.44-2.40 159.68-2.40Z M195 0L192 0L192-3.12Q190.92-1.68 189.36-0.68Q187.80 0.32 185.80 0.32Q183.80 0.32 182.36-0.24Q180.92-0.80 179.84-1.92L179.84-1.92Q177.36-4.36 177.36-8.36L177.36-8.36L177.36-20L180.36-20L180.36-8.44Q180.36-5.68 181.92-4.04Q183.48-2.40 185.96-2.40L185.96-2.40Q188.48-2.40 190.24-4.08L190.24-4.08Q192-5.80 192-8.48L192-8.48L192-20L195-20L195 0Z M214.56-20.32L214.76-20.32L214.76-17.32L214.40-17.32Q211.16-17.32 209.12-14.72L209.12-14.72Q207.20-12.24 207.20-8.80L207.20-8.80L207.20 0L204.20 0L204.20-20L207.20-20L207.20-15.08Q208.16-18.20 211.36-19.68L211.36-19.68Q212.68-20.32 214.56-20.32L214.56-20.32Z M238.20-22.42Q237.44-21.76 237.18-20.96Q236.92-20.16 236.92-19.26Q236.92-18.36 237.70-17.60Q238.48-16.84 239.76-16.32Q241.04-15.80 242.68-15.40Q244.32-15 246.02-14.58Q247.72-14.16 249.36-13.62Q251.00-13.08 252.28-12.24L252.28-12.24Q255.12-10.44 255.12-7.32L255.12-7.32Q255.12-3.60 252.34-1.64Q249.56 0.32 244.64 0.32L244.64 0.32Q239.08 0.32 236.16-2L236.16-2Q233.56-4.08 233.20-7.92L233.20-7.92L236.32-7.92Q236.48-5.20 238.96-3.76L238.96-3.76Q241.12-2.52 244.68-2.52L244.68-2.52Q252.12-2.52 252.12-7.20L252.12-7.20Q252.12-8.80 250.78-9.72Q249.44-10.64 247.42-11.24Q245.40-11.84 243.06-12.36Q240.72-12.88 238.70-13.70Q236.68-14.52 235.34-15.86Q234.00-17.20 234.00-19.48L234.00-19.48Q234.00-22.72 236.48-24.76Q238.96-26.80 243.96-26.80L243.96-26.80Q249.00-26.80 251.76-24.48L251.76-24.48Q254.28-22.44 254.44-19.24L254.44-19.24L251.36-19.24Q250.96-22.52 247.12-23.60L247.12-23.60Q245.76-24 243.74-24Q241.72-24 240.34-23.54Q238.96-23.08 238.20-22.42Z M268.28 0L265.28 0L265.28-17.36L261.20-17.36L261.20-20L265.28-20L265.28-27.16L268.28-27.16L268.28-20L272.88-20L272.88-17.36L268.28-17.36L268.28 0Z M288.44-20.32L288.44-20.32Q292.92-20.32 295.72-17.32L295.72-17.32Q298.36-14.44 298.36-10L298.36-10Q298.36-5.56 295.72-2.68L295.72-2.68Q292.92 0.32 288.44 0.32L288.44 0.32Q283.96 0.32 281.16-2.68L281.16-2.68Q278.52-5.56 278.52-10L278.52-10Q278.52-14.44 281.16-17.32L281.16-17.32Q283.96-20.32 288.44-20.32ZM288.44-2.40L288.44-2.40Q291.68-2.40 293.56-4.64L293.56-4.64Q295.36-6.76 295.36-10L295.36-10Q295.36-13.24 293.56-15.36L293.56-15.36Q291.68-17.60 288.44-17.60L288.44-17.60Q285.20-17.60 283.32-15.36L283.32-15.36Q281.52-13.24 281.52-10L281.52-10Q281.52-6.76 283.32-4.64L283.32-4.64Q285.20-2.40 288.44-2.40Z M316.68-20.32L316.88-20.32L316.88-17.32L316.52-17.32Q313.28-17.32 311.24-14.72L311.24-14.72Q309.32-12.24 309.32-8.80L309.32-8.80L309.32 0L306.32 0L306.32-20L309.32-20L309.32-15.08Q310.28-18.20 313.48-19.68L313.48-19.68Q314.80-20.32 316.68-20.32L316.68-20.32Z M341.28-20L329.44 7.92L326.20 7.92L329.84-0.28L321.68-20L325.00-20L331.44-3.60L338.00-20L341.28-20Z M379.56-26.48L382.56-26.48L382.56 0L379.56 0L379.56-11.80L364.16-11.80L364.16 0L361.16 0L361.16-26.48L364.16-26.48L364.16-14.72L379.56-14.72L379.56-26.48Z M400.96-2.40L400.96-2.40Q405.00-2.40 406.76-5.76L406.76-5.76L410.04-5.76Q409.00-3.04 406.74-1.36Q404.48 0.32 400.92 0.32L400.92 0.32Q396.40 0.32 393.56-2.68L393.56-2.68Q390.80-5.60 390.80-10L390.80-10Q390.80-14.44 393.44-17.32L393.44-17.32Q396.24-20.32 400.72-20.32L400.72-20.32Q405.20-20.32 408.00-17.32L408.00-17.32Q410.64-14.44 410.64-10L410.64-10L410.64-8.80L393.88-8.80Q394.20-6.04 396.08-4.24L396.08-4.24Q398.00-2.40 400.96-2.40ZM400.72-17.60L400.72-17.60Q397.96-17.60 396.08-15.88L396.08-15.88Q394.32-14.24 393.92-11.60L393.92-11.60L407.52-11.60Q407.12-14.24 405.36-15.88L405.36-15.88Q403.48-17.60 400.72-17.60Z M428.68-20.32L428.88-20.32L428.88-17.32L428.52-17.32Q425.28-17.32 423.24-14.72L423.24-14.72Q421.32-12.24 421.32-8.80L421.32-8.80L421.32 0L418.32 0L418.32-20L421.32-20L421.32-15.08Q422.28-18.20 425.48-19.68L425.48-19.68Q426.80-20.32 428.68-20.32L428.68-20.32Z M444.52-2.40L444.52-2.40Q448.56-2.40 450.32-5.76L450.32-5.76L453.60-5.76Q452.56-3.04 450.30-1.36Q448.04 0.32 444.48 0.32L444.48 0.32Q439.96 0.32 437.12-2.68L437.12-2.68Q434.36-5.60 434.36-10L434.36-10Q434.36-14.44 437.00-17.32L437.00-17.32Q439.80-20.32 444.28-20.32L444.28-20.32Q448.76-20.32 451.56-17.32L451.56-17.32Q454.20-14.44 454.20-10L454.20-10L454.20-8.80L437.44-8.80Q437.76-6.04 439.64-4.24L439.64-4.24Q441.56-2.40 444.52-2.40ZM444.28-17.60L444.28-17.60Q441.52-17.60 439.64-15.88L439.64-15.88Q437.88-14.24 437.48-11.60L437.48-11.60L451.08-11.60Q450.68-14.24 448.92-15.88L448.92-15.88Q447.04-17.60 444.28-17.60Z"/></g>
</svg>
</g><g filter="url(#ikYEXSHZT)"><g opacity="1" transform="rotate(0 -285.8572 409.5124)">
<svg width="122.2287" height="120" x="-285.8572" y="409.5124" version="1.1" preserveAspectRatio="none" viewBox="1.16 -28 28.52 28">
  <g transform="matrix(1 0 0 1 0 0)" class="icon3"><path id="id-BEGfasMba1" d="M24.68-14.44Q26.48-13.72 27.46-12.30Q28.44-10.88 28.44-8.84L28.44-8.84Q28.44-4.48 25-2.24Q21.56 0 15.84 0L15.84 0L1.16 0L6.76-28L20.28-28Q24.80-28 27.24-26.34Q29.68-24.68 29.68-21.60L29.68-21.60Q29.68-19.04 28.34-17.22Q27-15.40 24.68-14.44L24.68-14.44ZM18.76-23.12L12.20-23.12L10.88-16.52L17.48-16.52Q20.04-16.52 21.46-17.54Q22.88-18.56 22.88-20.48L22.88-20.48Q22.88-23.12 18.76-23.12L18.76-23.12ZM16.24-4.88Q18.96-4.88 20.48-5.92Q22-6.96 22-8.92L22-8.92Q22-11.80 17.80-11.80L17.80-11.80L9.96-11.80L8.60-4.88L16.24-4.88Z"/></g>
</svg>
</g></g><g filter="url(#tUk6sjh6M)"><g opacity="1" transform="rotate(0 -279.771 409.5124)">
<svg width="110.0564" height="120" x="-279.771" y="409.5124" version="1.1" preserveAspectRatio="none" viewBox="3.32 -28 25.68 28">
  <g transform="matrix(1 0 0 1 0 0)" class="companyName"><path id="id-D6z1nYkh1" d="M23.88-14.56Q26.28-13.80 27.64-12.02Q29-10.24 29-7.64L29-7.64Q29-3.96 26.14-1.98Q23.28 0 17.80 0L17.80 0L3.32 0L3.32-28L17-28Q22.12-28 24.86-26.04Q27.60-24.08 27.60-20.72L27.60-20.72Q27.60-18.68 26.62-17.08Q25.64-15.48 23.88-14.56L23.88-14.56ZM16.20-23.12L9.76-23.12L9.76-16.52L16.20-16.52Q18.60-16.52 19.84-17.36Q21.08-18.20 21.08-19.84L21.08-19.84Q21.08-21.48 19.84-22.30Q18.60-23.12 16.20-23.12L16.20-23.12ZM17.32-4.88Q19.88-4.88 21.18-5.72Q22.48-6.56 22.48-8.32L22.48-8.32Q22.48-11.80 17.32-11.80L17.32-11.80L9.76-11.80L9.76-4.88L17.32-4.88Z"/></g>
</svg>
</g></g></svg></svg>